<?xml version="1.0" encoding="utf-8"?>
<!-- Generator: Adobe Illustrator 28.1.0, SVG Export Plug-In . SVG Version: 6.00 Build 0)  -->
<svg version="1.1" id="Layer_1" xmlns="http://www.w3.org/2000/svg" xmlns:xlink="http://www.w3.org/1999/xlink" x="0px" y="0px"
	 viewBox="0 0 450 450" style="enable-background:new 0 0 450 450;" xml:space="preserve">
<style type="text/css">
	.st0{opacity:0.3;}
	.st1{fill:#F2F2F2;}
	.st2{fill:#B5AFA7;}
	.st3{fill:#6CB5C4;}
	.st4{fill:#231F20;}
	.st5{fill:#414042;}
	.st6{fill:#857F79;}
	.st7{fill:#D8D1C7;}
	.st8{fill:#A39C95;}
	.st9{fill:#E6E1DD;}
	.st10{fill:#6D6E71;}
	.st11{fill:#808285;}
	.st12{fill:#58595B;}
	.st13{fill:#FA5C52;}
	.st14{fill:#AB281F;}
	.st15{fill:#8A1C14;}
	.st16{fill:#C84030;}
</style>
<g>
	<g>
		<polygon class="st0" points="447.14,201.99 257.37,321.01 9.92,165.82 199.69,46.81 		"/>
		<polygon class="st1" points="447.14,200.43 257.37,319.43 9.92,164.25 199.69,45.24 		"/>
		<polygon class="st2" points="192.43,67.1 144.75,97 172.21,114.22 219.9,84.32 		"/>
		<polygon class="st2" points="242.11,98.25 94.45,190.85 87.78,186.67 235.43,94.07 		"/>
		<polygon class="st2" points="256.95,107.56 109.29,200.16 102.61,195.98 250.27,103.37 		"/>
		<polygon class="st2" points="271.78,116.87 124.13,209.47 117.46,205.28 265.11,112.68 		"/>
		<polygon class="st2" points="286.63,126.18 138.97,218.78 132.3,214.58 279.95,121.99 		"/>
		<polygon class="st2" points="353.03,167.82 294.9,204.26 292.74,202.91 350.87,166.46 		"/>
		<g>
			<path class="st3" d="M271.78,223.17l-20.71,3.48l-15.17,9.51l-5.55,12.99l5.55,12.99l15.16,9.5l20.72,3.49l20.71-3.49l15.17-9.5
				l5.56-12.99l-5.55-12.99l-15.17-9.51L271.78,223.17z M302.5,238.02l4.75,11.13l-4.75,11.12l-12.98,8.14l-17.73,2.97l-17.73-2.97
				l-12.98-8.14l-4.75-11.12l4.75-11.12l12.98-8.15l17.73-2.97l17.73,2.97L302.5,238.02z"/>
			<polygon class="st3" points="262.92,239.52 256.43,243.6 254.05,249.16 256.43,254.71 262.92,258.78 271.78,260.27 
				280.65,258.78 287.14,254.71 289.51,249.16 287.14,243.59 280.65,239.52 271.78,238.03 			"/>
			<path class="st3" d="M257.82,233.99l-10.21,6.4l-3.74,8.76l3.74,8.75l10.22,6.41l13.95,2.34l13.96-2.34l10.22-6.41l3.74-8.76
				l-3.74-8.75l-10.22-6.4l-13.96-2.35L257.82,233.99z M294.24,241.02l3.47,8.13l-3.48,8.12l-9.49,5.95l-12.96,2.19l-12.96-2.19
				l-9.49-5.95l-3.47-8.12l3.47-8.13l9.49-5.96l12.96-2.17l12.97,2.17L294.24,241.02z"/>
		</g>
		<polygon class="st2" points="240.54,173.69 153.81,228.08 147.15,223.9 233.87,169.5 		"/>
	</g>
	<g>
		<polygon class="st0" points="165.1,280.54 128.34,257.49 165.1,234.44 201.85,257.49 		"/>
		<g>
			<polygon class="st4" points="202.34,202.17 196.87,202.11 196.87,217.79 199.65,223.83 202.34,222.14 			"/>
			<polygon class="st5" points="199.65,203.85 162.25,180.39 162.25,200.37 199.65,223.83 			"/>
		</g>
		<g>
			<path class="st6" d="M159.94,178.95v55.39l34.71,21.77l1.19-10.62v-46.23L159.94,178.95z"/>
			<path class="st7" d="M164.29,233.34l0.37,42.29l30.55-19.16v-42.03L164.29,233.34z M192.05,249.08l-2.35,4.45l-20.99,13.16
				l-2.36-1.48v-28.66l2.36-4.44l20.99-13.15l2.35,1.47V249.08z"/>
			<path class="st7" d="M132.9,202.17v55.39l32.19,20.18l1.19-10.62v-46.23L132.9,202.17z"/>
			<g>
				<polygon class="st8" points="150.81,262.31 150.81,264.08 146.99,261.68 146.99,217.35 148.41,218.24 149.17,259.08 				"/>
				<polygon class="st9" points="150.81,219.75 150.81,262.31 148.41,260.81 148.41,218.24 				"/>
			</g>
			<path class="st8" d="M165.1,222.36v55.39l32.02-20.09v-55.39L165.1,222.36z M193.96,250.29l-2.36,4.44l-20.99,13.16l-2.36-1.47
				v-28.66l2.36-4.44l20.99-13.16l2.36,1.48V250.29z"/>
		</g>
		<polygon class="st10" points="127.54,156.63 134.95,142.7 140.86,146.99 135.66,159.65 		"/>
		<polygon class="st10" points="194.93,142.7 202.34,156.63 197.28,159.51 189.36,149.2 		"/>
		<rect x="155.17" y="163.09" class="st10" width="20.6" height="18.28"/>
		<polygon class="st4" points="202.34,156.63 194.93,152.01 186.62,153.79 172.38,166.17 164.93,180.1 161.27,207.36 164.93,225.63 
			202.34,202.17 		"/>
		<polygon class="st4" points="167.62,223.94 162.15,223.89 162.15,239.57 164.93,245.6 167.62,243.91 		"/>
		<polygon class="st5" points="164.93,180.1 157.54,166.17 134.95,152 127.54,156.63 127.54,222.14 164.93,245.6 		"/>
		<g>
			<g>
				<polygon class="st11" points="142.89,214.54 143.97,213.9 148.34,216.64 147.23,219.31 				"/>
				<polygon class="st10" points="147.23,217.28 148.34,216.64 151.42,222.4 150.31,228.56 				"/>
				<polygon class="st4" points="150.31,223.12 151.42,222.4 151.42,227.93 150.31,228.56 				"/>
				<polygon class="st12" points="147.23,230.61 150.31,228.56 150.31,223.12 147.23,217.28 142.89,214.54 139.72,216.56 
					139.72,221.97 142.89,227.77 				"/>
			</g>
			<g>
				<polygon class="st13" points="141.75,217.15 143.03,216.34 146.51,218.51 145.22,220.89 				"/>
				<polygon class="st14" points="145.23,219.32 146.51,218.51 149,223.17 147.73,228.38 				"/>
				<polygon class="st15" points="147.73,223.99 149,223.17 149,227.53 147.73,228.38 				"/>
				<polygon class="st16" points="145.23,229.96 147.73,228.38 147.73,223.99 145.23,219.32 141.75,217.15 139.33,218.7 
					139.33,223.1 141.75,227.75 				"/>
			</g>
		</g>
		<polygon class="st12" points="194.93,152.01 194.93,142.7 172.38,128.55 157.54,128.55 134.95,142.7 134.95,152.01 157.54,166.17 
			172.38,166.17 		"/>
	</g>
</g>
</svg>
