<?xml version="1.0" encoding="utf-8"?>
<!-- Generator: Adobe Illustrator 28.0.0, SVG Export Plug-In . SVG Version: 6.00 Build 0)  -->
<svg version="1.1" xmlns="http://www.w3.org/2000/svg" xmlns:xlink="http://www.w3.org/1999/xlink" x="0px" y="0px"
	 viewBox="0 0 750 500" style="enable-background:new 0 0 750 500;" xml:space="preserve">
<style type="text/css">
	.st0{fill:#EBEBEB;}
	.st1{fill:#F5F5F5;}
	.st2{display:none;}
	.st3{display:inline;}
	.st4{fill:#407BFF;}
	.st5{opacity:0.9;fill:#FFFFFF;}
	.st6{fill:#263238;}
	.st7{opacity:0.2;}
	.st8{fill:none;stroke:#407BFF;stroke-width:0.5;stroke-linecap:round;stroke-linejoin:round;stroke-miterlimit:10;}
	.st9{fill:#FFFFFF;}
	.st10{fill:#EEC1BB;}
	.st11{opacity:0.2;enable-background:new    ;}
	.st12{opacity:0.2;fill:none;stroke:#000000;stroke-width:0.5;stroke-linecap:round;stroke-linejoin:round;stroke-miterlimit:10;}
	.st13{fill:#D4827D;}
	.st14{fill:none;stroke:#263238;stroke-width:0.5;stroke-linecap:round;stroke-linejoin:round;stroke-miterlimit:10;}
	.st15{opacity:0.3;}
	.st16{fill:#DC5753;}
	.st17{opacity:0.5;fill:#FFFFFF;}
	.st18{opacity:0.8;fill:#FFFFFF;enable-background:new    ;}
	.st19{opacity:0.4;}
	.st20{fill:#E9B376;}
	.st21{opacity:0.7;fill:#FFFFFF;}
	.st22{opacity:0.3;fill:#FFFFFF;}
	.st23{fill:#D58745;}
	.st24{fill:none;stroke:#263238;stroke-width:0.75;stroke-linecap:round;stroke-linejoin:round;stroke-miterlimit:10;}
	.st25{fill:#B97964;}
	.st26{fill:#A24E3F;}
	.st27{opacity:0.5;}
</style>
<g id="Background_complete">
	<path class="st0" d="M238.48,111.24c-2.51,3.82-4.19,8.01-5.09,12.34l-6.89,0.65l0,13.34l6.89,0.65c0.9,4.32,2.58,8.52,5.09,12.34
		l-4.4,5.31l9.43,9.43l5.31-4.4c3.82,2.51,8.01,4.19,12.34,5.09l0.65,6.89l13.34,0l0.65-6.89c4.32-0.9,8.52-2.58,12.34-5.09
		l5.31,4.4l9.43-9.43l-4.4-5.31c2.51-3.82,4.19-8.01,5.09-12.34l6.89-0.65l0-13.34l-6.89-0.65c-0.9-4.32-2.58-8.52-5.09-12.33
		l4.4-5.31l-9.43-9.43l-5.31,4.4c-3.82-2.51-8.01-4.19-12.34-5.09l-0.65-6.89l-13.34,0l-0.65,6.89c-4.32,0.9-8.52,2.58-12.33,5.09
		l-5.31-4.4l-9.43,9.43L238.48,111.24z M281.25,118.12c7.05,7.05,7.05,18.49,0,25.54c-7.05,7.05-18.49,7.05-25.54,0
		c-7.05-7.05-7.05-18.49,0-25.54C262.76,111.07,274.2,111.07,281.25,118.12z"/>
	<path class="st0" d="M264.51,272.15c-1.25,1.91-2.1,4-2.54,6.17l-3.44,0.32l0,6.67l3.44,0.32c0.45,2.16,1.29,4.26,2.54,6.17
		l-2.2,2.66l4.71,4.71l2.66-2.2c1.91,1.25,4,2.1,6.17,2.54l0.32,3.44l6.67,0l0.32-3.44c2.16-0.45,4.26-1.29,6.17-2.54l2.66,2.2
		l4.71-4.71l-2.2-2.66c1.25-1.91,2.1-4,2.54-6.17l3.44-0.32l0-6.67l-3.44-0.32c-0.45-2.16-1.29-4.26-2.54-6.16l2.2-2.66l-4.71-4.71
		l-2.66,2.2c-1.91-1.25-4-2.1-6.17-2.54l-0.32-3.44l-6.67,0l-0.32,3.44c-2.16,0.45-4.26,1.29-6.16,2.54l-2.66-2.2l-4.71,4.71
		L264.51,272.15z M285.89,275.59c3.52,3.52,3.52,9.24,0,12.76c-3.53,3.52-9.24,3.52-12.76,0c-3.52-3.52-3.52-9.24,0-12.76
		C276.65,272.07,282.36,272.07,285.89,275.59z"/>
	<path class="st0" d="M74.46,202.56c-1.98,3.01-3.31,6.32-4.02,9.74L65,212.81l0,10.53l5.44,0.51c0.71,3.41,2.04,6.72,4.02,9.74
		l-3.47,4.19l7.45,7.45l4.19-3.47c3.01,1.98,6.32,3.31,9.74,4.02l0.51,5.44l10.53,0l0.51-5.44c3.41-0.71,6.72-2.04,9.74-4.02
		l4.19,3.47l7.45-7.45l-3.47-4.2c1.98-3.01,3.31-6.32,4.02-9.74l5.44-0.51l0-10.53l-5.44-0.51c-0.71-3.41-2.04-6.72-4.02-9.74
		l3.47-4.2l-7.45-7.45l-4.19,3.47c-3.01-1.98-6.32-3.31-9.74-4.02l-0.51-5.44l-10.53,0l-0.51,5.44c-3.41,0.71-6.72,2.04-9.74,4.02
		l-4.2-3.47l-7.45,7.45L74.46,202.56z M108.22,208c5.57,5.57,5.57,14.59,0,20.16c-5.57,5.57-14.59,5.57-20.16,0
		c-5.57-5.57-5.57-14.59,0-20.16C93.63,202.43,102.66,202.43,108.22,208z"/>
	<path class="st0" d="M646.89,181.04c-0.93,1.41-1.55,2.96-1.88,4.56l-2.55,0.24l0,4.93l2.55,0.24c0.33,1.6,0.95,3.15,1.88,4.56
		l-1.63,1.96l3.49,3.49l1.96-1.63c1.41,0.93,2.96,1.55,4.56,1.88l0.24,2.55l4.93,0l0.24-2.54c1.6-0.33,3.15-0.95,4.56-1.88
		l1.96,1.63l3.49-3.49l-1.63-1.96c0.93-1.41,1.55-2.96,1.88-4.56l2.54-0.24l0-4.93l-2.54-0.24c-0.33-1.6-0.95-3.15-1.88-4.56
		l1.63-1.96l-3.49-3.49l-1.96,1.63c-1.41-0.93-2.96-1.55-4.56-1.88l-0.24-2.55l-4.93,0l-0.24,2.55c-1.6,0.33-3.15,0.95-4.56,1.88
		l-1.96-1.63l-3.49,3.49L646.89,181.04z M662.69,183.59c2.61,2.61,2.61,6.83,0,9.44c-2.61,2.61-6.83,2.61-9.44,0
		c-2.61-2.61-2.61-6.83,0-9.44C655.86,180.98,660.09,180.98,662.69,183.59z"/>
	<path class="st1" d="M458.94,119.4c-0.93,1.41-1.55,2.96-1.88,4.56l-2.54,0.24l0,4.93l2.55,0.24c0.33,1.6,0.95,3.15,1.88,4.56
		l-1.63,1.96l3.49,3.49l1.96-1.63c1.41,0.93,2.96,1.55,4.56,1.88l0.24,2.55l4.93,0l0.24-2.54c1.6-0.33,3.15-0.95,4.56-1.88
		l1.96,1.63l3.49-3.49l-1.63-1.96c0.93-1.41,1.55-2.96,1.88-4.56l2.54-0.24l0-4.93l-2.55-0.24c-0.33-1.6-0.95-3.15-1.88-4.56
		l1.63-1.96l-3.49-3.49l-1.96,1.63c-1.41-0.93-2.96-1.55-4.56-1.88l-0.24-2.55l-4.93,0l-0.24,2.55c-1.6,0.33-3.15,0.95-4.56,1.88
		l-1.96-1.63l-3.49,3.49L458.94,119.4z M474.74,121.94c2.61,2.61,2.61,6.83,0,9.44c-2.61,2.61-6.83,2.61-9.44,0
		c-2.61-2.61-2.61-6.83,0-9.44C467.91,119.34,472.14,119.34,474.74,121.94z"/>
	<path class="st1" d="M129.08,260.86c-0.93,1.41-1.55,2.96-1.88,4.56l-2.55,0.24l0,4.93l2.55,0.24c0.33,1.6,0.95,3.15,1.88,4.56
		l-1.63,1.96l3.49,3.49l1.96-1.63c1.41,0.93,2.96,1.55,4.56,1.88l0.24,2.55l4.93,0l0.24-2.54c1.6-0.33,3.15-0.95,4.56-1.88
		l1.96,1.63l3.49-3.49l-1.63-1.96c0.93-1.41,1.55-2.96,1.88-4.56l2.54-0.24l0-4.93l-2.54-0.24c-0.33-1.6-0.95-3.15-1.88-4.56
		l1.63-1.96l-3.49-3.49l-1.96,1.63c-1.41-0.93-2.96-1.55-4.56-1.88l-0.24-2.55l-4.93,0l-0.24,2.54c-1.6,0.33-3.15,0.95-4.56,1.88
		l-1.96-1.63l-3.49,3.49L129.08,260.86z M144.88,263.41c2.61,2.61,2.61,6.83,0,9.44c-2.61,2.61-6.83,2.61-9.44,0
		c-2.61-2.61-2.61-6.83,0-9.44C138.05,260.8,142.27,260.8,144.88,263.41z"/>
	<path class="st0" d="M574.99,200.92c-1.59,2.42-2.66,5.09-3.23,7.83l-4.37,0.41l0,8.47l4.37,0.41c0.57,2.75,1.64,5.41,3.23,7.83
		l-2.79,3.37l5.99,5.99l3.37-2.79c2.42,1.59,5.09,2.66,7.83,3.23l0.41,4.37l8.47,0l0.41-4.37c2.75-0.57,5.41-1.64,7.83-3.23
		l3.37,2.79l5.99-5.99l-2.79-3.37c1.59-2.42,2.66-5.09,3.23-7.83l4.37-0.41l0-8.47l-4.37-0.41c-0.57-2.75-1.64-5.41-3.23-7.83
		l2.79-3.37l-5.99-5.99l-3.37,2.79c-2.42-1.59-5.09-2.66-7.83-3.23l-0.41-4.37l-8.47,0l-0.41,4.37c-2.75,0.57-5.41,1.64-7.83,3.23
		l-3.37-2.79l-5.99,5.99L574.99,200.92z M602.15,205.29c4.48,4.48,4.48,11.74,0,16.22c-4.48,4.48-11.74,4.48-16.22,0
		c-4.48-4.48-4.48-11.74,0-16.22C590.41,200.82,597.68,200.82,602.15,205.29z"/>
	<path class="st0" d="M406.64,248.42c-1.6,2.44-2.68,5.13-3.26,7.89l-4.41,0.42l0,8.54l4.41,0.42c0.57,2.77,1.65,5.45,3.26,7.89
		l-2.82,3.4l6.04,6.04l3.4-2.82c2.44,1.6,5.13,2.68,7.89,3.26l0.41,4.41l8.54,0l0.42-4.41c2.77-0.57,5.45-1.65,7.89-3.26l3.4,2.82
		l6.04-6.04l-2.82-3.4c1.6-2.44,2.68-5.13,3.26-7.89l4.41-0.42l0-8.54l-4.41-0.42c-0.57-2.77-1.65-5.45-3.26-7.89l2.82-3.4
		l-6.04-6.04l-3.4,2.82c-2.44-1.6-5.13-2.68-7.89-3.26l-0.42-4.41l-8.54,0l-0.41,4.41c-2.77,0.57-5.45,1.65-7.89,3.26l-3.4-2.82
		l-6.04,6.04L406.64,248.42z M434.01,252.82c4.51,4.51,4.51,11.83,0,16.34c-4.51,4.51-11.83,4.51-16.34,0
		c-4.51-4.51-4.51-11.83,0-16.34C422.18,248.31,429.5,248.31,434.01,252.82z"/>
	<path class="st0" d="M431.66,328.88c-2.69,4.1-4.5,8.6-5.47,13.25l-7.4,0.7l0,14.33l7.4,0.7c0.96,4.64,2.77,9.15,5.47,13.25
		l-4.73,5.71l10.13,10.13l5.71-4.72c4.1,2.69,8.6,4.5,13.25,5.47l0.7,7.4l14.33,0l0.7-7.4c4.64-0.96,9.15-2.78,13.25-5.47l5.71,4.72
		l10.13-10.13l-4.72-5.71c2.69-4.1,4.5-8.6,5.47-13.25l7.4-0.7l0-14.33l-7.4-0.7c-0.96-4.64-2.78-9.15-5.47-13.25l4.72-5.71
		l-10.13-10.13l-5.71,4.72c-4.1-2.69-8.6-4.5-13.25-5.47l-0.7-7.4l-14.33,0l-0.7,7.4c-4.64,0.96-9.15,2.77-13.25,5.47l-5.71-4.73
		l-10.13,10.13L431.66,328.88z M477.59,336.28c7.57,7.57,7.57,19.85,0,27.43c-7.57,7.57-19.85,7.57-27.43,0
		c-7.57-7.57-7.57-19.85,0-27.43C457.74,328.7,470.02,328.7,477.59,336.28z"/>
</g>
<g id="Background_simple" class="st2">
	<g class="st3">
		<path class="st4" d="M275.65,61.95c-32.3,2.96-63.45,9.27-91.08,19.17c-32.56,11.66-65.83,29.84-56,53.6
			c18.14,43.88,105.17,44.68,87.79,74.18c-19.68,33.42-6.48,72.62,81.83,83.52c167.75,20.71,370.53-100.45,313.57-167.02
			C576.31,83.97,447.17,46.21,275.65,61.95z"/>
		<path class="st5" d="M275.65,61.95c-32.3,2.96-63.45,9.27-91.08,19.17c-32.56,11.66-65.83,29.84-56,53.6
			c18.14,43.88,105.17,44.68,87.79,74.18c-19.68,33.42-6.48,72.62,81.83,83.52c167.75,20.71,370.53-100.45,313.57-167.02
			C576.31,83.97,447.17,46.21,275.65,61.95z"/>
	</g>
</g>
<g id="Shadow">
	<g>
		<g>
			<path class="st1" d="M700.51,448.39c0,3.39-141.26,6.13-315.51,6.13s-315.51-2.75-315.51-6.13c0-3.39,141.26-6.13,315.51-6.13
				S700.51,445.01,700.51,448.39z"/>
		</g>
	</g>
</g>
<g id="Plant">
	<g>
		<g>
			<g>
				<path class="st4" d="M117.08,274.16c-18.24,21.33-23.56,52.91-13.33,79.04c11.37-10.14,19.37-25.61,19.88-39.13
					C124.13,300.54,120.59,287.23,117.08,274.16z"/>
			</g>
			<g>
				<path class="st4" d="M113.9,355.66c-6.19,9.48-9.15,21.03-8.29,32.32c9.86-3.43,18.55-14.57,23.76-23.61
					c5.21-9.05,8.12-19.2,10.77-29.3C129.46,338.82,120.09,346.18,113.9,355.66z"/>
			</g>
			<g>
				<g>
					<path class="st6" d="M111.62,311.41c-7.33,26.33-11.06,53.64-11.04,80.96c0.01,7.77,0.32,15.55,0.93,23.3
						c0.04,0.48,0.79,0.48,0.75,0c-2.14-27.26-0.55-54.78,4.74-81.61c1.49-7.55,3.28-15.04,5.34-22.45
						C112.48,311.14,111.75,310.94,111.62,311.41L111.62,311.41z"/>
				</g>
			</g>
			<g>
				<g>
					<path class="st6" d="M101.72,396.89c7.48-17.82,17.32-34.51,28.7-50.11c0.28-0.39-0.37-0.77-0.65-0.38
						c-8.9,12.21-16.9,25.09-23.52,38.68c-1.86,3.82-3.6,7.69-5.25,11.6C100.81,397.14,101.54,397.33,101.72,396.89L101.72,396.89z"
						/>
				</g>
			</g>
			<g>
				<path class="st4" d="M91.11,370.43c5.16,7.91,7.63,17.53,6.91,26.95c-8.22-2.86-15.47-12.15-19.81-19.69
					c-4.34-7.54-6.77-16.01-8.98-24.43C78.13,356.39,85.95,362.53,91.11,370.43z"/>
			</g>
			<g>
				<g>
					<path class="st6" d="M101.5,403.62c-6.14-14.61-14.25-28.14-23.57-40.93c-0.28-0.39-0.93-0.01-0.65,0.38
						c9.28,12.73,17.39,26.21,23.5,40.75C100.96,404.25,101.69,404.06,101.5,403.62L101.5,403.62z"/>
				</g>
			</g>
			<g>
				<g>
					<path class="st6" d="M101.79,408.47c11.6-11.93,23.44-23.63,35.04-35.56c0.34-0.35-0.19-0.88-0.53-0.53
						c-11.6,11.93-23.44,23.63-35.04,35.56C100.92,408.28,101.45,408.81,101.79,408.47L101.79,408.47z"/>
				</g>
			</g>
			<g>
				<path class="st4" d="M137.27,367.42c-10.06,9.71-19.23,20.34-27.35,31.72l1.84,0c7.66-0.36,15.1-4.14,19.9-10.11
					C136.46,383.05,138.56,374.98,137.27,367.42z"/>
			</g>
			<g>
				<g>
					<g>
						<path class="st6" d="M89.63,344.27c4.32,7.07,8.39,14.28,12.21,21.64c0.22,0.43,0.87,0.05,0.65-0.38
							c-3.81-7.35-7.89-14.57-12.21-21.64C90.02,343.48,89.38,343.86,89.63,344.27L89.63,344.27z"/>
					</g>
				</g>
				<g>
					<path class="st4" d="M79.21,308.59c-1.65,7.41-3.28,17.05-3.3,24.77c-0.02,7.72,2.34,15.25,6.72,20.42s13.24,7.44,16.81,4.48
						L79.21,308.59z"/>
				</g>
			</g>
		</g>
		<rect x="78.98" y="411.91" class="st6" width="43.96" height="8.15"/>
		<polygon class="st6" points="115.83,449.09 88.53,449.09 83.56,418.19 119.74,418.19 		"/>
		<polygon class="st7" points="83.89,420.21 119.49,420.21 119.04,423.71 84.45,423.71 		"/>
	</g>
</g>
<g id="Speech_Bubble_2">
	<g>
		<g>
			<g>
				<path class="st4" d="M635.18,235.83c11.11-6.35,25.26-2.5,31.61,8.61c6.35,11.11,2.5,25.26-8.61,31.61
					c-8.57,4.9-18.95,3.7-26.16-2.2l-6.87,1.08l1.63-7.17c-0.07-0.11-0.14-0.21-0.21-0.32
					C620.21,256.33,624.07,242.18,635.18,235.83z"/>
			</g>
			<path class="st8" d="M639.29,230.69c-7.4,1.42-13.91,6.81-16.68,13.81"/>
			<path class="st8" d="M621.45,247.76c-0.5,1.03-0.79,2.17-0.83,3.32"/>
		</g>
		<g>
			<polygon class="st9" points="643.96,264.69 634.18,255.77 637.29,252.36 643.85,258.34 654.75,247.7 657.97,251.01 			"/>
		</g>
	</g>
</g>
<g id="Speech_Bubble_1">
	<g>
		<g>
			<g>
				<g>
					<path class="st4" d="M396.58,87.91c11.67-6.78,26.62-2.82,33.4,8.85c6.78,11.67,2.82,26.62-8.85,33.4
						c-9.01,5.23-19.96,4.04-27.61-2.13l-7.24,1.19l1.67-7.57c-0.07-0.12-0.15-0.22-0.22-0.34
						C380.95,109.64,384.91,94.69,396.58,87.91z"/>
				</g>
				<path class="st8" d="M430.02,91.13c-4.75-6.37-12.85-10.08-20.78-9.51"/>
				<path class="st8" d="M405.62,82.02c-1.21,0-2.42,0.25-3.53,0.73"/>
			</g>
		</g>
		<g>
			<rect x="396.62" y="105.52" class="st9" width="22.83" height="5.71"/>
			<polygon class="st9" points="417.34,114.34 417.34,102.81 422.96,108.57 			"/>
		</g>
	</g>
</g>
<g id="Character_3">
	<g>
		<g>
			<path class="st10" d="M546.08,233.05c0,0-0.61,10.47-5.72,28.83c-3.21,11.34-7.1,22.48-11.66,33.35
				c-2.55,6.14-5.48,12.66-8.84,19.52c-1.51,3.12-3.13,6.29-4.83,9.54c-1.96,55.55-33.13,112.02-33.13,112.02
				c-1.73,0.89-7.76-0.08-7.72-1.84c4.62-7.33,13.7-78.51,19.56-112.28c0.36-4.59,0.89-9.45,1.54-14.59
				c1.71-13.63,4.25-28.45,6.75-41.49c3.87-20.54,7.56-36.64,7.56-36.64l10.27,1L546.08,233.05z"/>
			<path class="st6" d="M481.55,448.28h-1.75l-0.5-2.21l-5.94,2.7h-15.05c0,0-2.39-2.4,4.76-4.31c0.35-0.1,0.69-0.23,1.01-0.39
				c3.82-1.79,9.24-7.84,9.24-7.84h8.25c0.25,0.38,0.48,0.78,0.67,1.2C483.16,439.21,484.71,443.07,481.55,448.28z"/>
			<path class="st10" d="M482.25,437.41L482.25,437.41c-1.08-1.21-6.03,4.12-9.66,5.94c-3.24,1.61-6.88,2.32-8.5,0.69
				c3.82-1.79,10.62-10.19,10.62-10.19l5.83,0.59C480.54,434.42,481.88,436.62,482.25,437.41z"/>
		</g>
		<g>
			<path class="st10" d="M558.33,309.95L558.33,309.95c-0.83,5.97-1.89,12.37-3.2,19.18c11.13,37.15-11.77,109.67-11.77,109.67
				c-3.87,0.77-7.3,0.27-9.04-1.04c4.32-21.85,1.21-78.66-2.15-112.6c-0.3-3.08-0.67-6.46-1.08-10.08
				c-0.69-6.13-1.51-12.88-2.39-19.85c-1.48-11.67-3.14-23.96-4.64-34.85c-1.84-13.16-3.43-24.29-4.25-29.89
				c-0.34-2.46-0.54-3.85-0.54-3.85l32.15,3.48c0,0,8.18,9.16,9.45,37.79C561.29,281.97,560.44,296.04,558.33,309.95z"/>
			<path class="st6" d="M544.16,448.28h-1.8l-0.5-2.21l-5.92,2.7h-15.03c0,0-2.39-2.4,4.78-4.31c0.35-0.1,0.69-0.23,1.01-0.39
				c3.81-1.79,9.24-7.84,9.24-7.84h8.25c0.25,0.39,0.47,0.79,0.67,1.2C545.77,439.21,547.28,443.07,544.16,448.28z"/>
			<path class="st10" d="M544.86,437.41L544.86,437.41c-1.09-1.21-6.05,4.12-9.68,5.94c-3.24,1.61-6.88,2.32-8.49,0.69
				c3.81-1.79,9.81-9.61,9.81-9.61h6.63C543.14,434.42,544.47,436.62,544.86,437.41z"/>
		</g>
		<g>
			<g>
				<path class="st6" d="M566.77,152.32c-1.65-1.43-4.32-0.88-6.59-1.15c-3.45-0.41-6.22-2.89-7.71-5.72
					c-1.48-2.82-1.91-5.99-2.44-9.07c-0.53-3.09-1.21-6.25-3.1-8.87c-1.89-2.62-6.45-5.87-9.76-3.88l-4.43,6.87
					c2.66,8.05,4.83,16.23,6.48,24.5c0.74,3.69,1.47,7.6,4.15,10.47c2.62,2.82,6.78,4.19,10.86,4.45c2.07,0.13,4.21,0,6.09-0.77
					c1.89-0.77,3.5-2.25,3.92-4.07c0.42-1.82-0.59-3.93-2.51-4.63c1.85-0.78,3.78-1.62,5.02-3.09
					C567.98,155.9,568.25,153.6,566.77,152.32z"/>
			</g>
			<g>
				<path class="st6" d="M503.26,118.13c-5.07,4.9-5.71,10.74-4.9,14.74c1.7,5.28,4.28,8.77,6.7,13.77l8.58-34.3
					C510.41,113.61,508.77,113.19,503.26,118.13z"/>
				<path class="st6" d="M518.55,112.13c9.89,0.2,19.83,8.47,20.6,16.5c0.78,8.03-7.12,18.39-8.6,19.02l-4.69,1.72
					c0,0,5.17-11.95,3.02-15.14c-2.15-3.19-3.7-3.23-3.7-3.23L518.55,112.13z"/>
				<path class="st6" d="M510.15,114.03c5.15-3.64,11.23-1.56,14.83,0c4.06,2.35,6.93,6.32,7.88,10.91
					c0.79,4.32,1.74,9.55-0.47,12.27c-1.23,1.57-3.06,2.55-5.05,2.7l-24.93-15.81C504.1,120.15,506.76,116.68,510.15,114.03z"/>
				<g>
					<path class="st10" d="M520.2,172.48c1.95,1.39,3.34,0.56,5.37-0.74c12.18-7.06,7.17-12.65,7.17-12.65
						c-3-2.45-3.74-5.9-3.8-11.35c-0.01-0.16-0.03-0.31-0.06-0.47c-0.14-0.7-0.49-1.35-1.01-1.85c-1.38-1.39-3.63-1.41-5.02-0.03
						c0,0,0,0,0,0l-5.53,2.73l0,0c0,0.08,0,0.17,0,0.26c0.51,2.9,1,5.13,1.3,6.9c0,0.22,0.08,0.44,0.1,0.65l0,0
						c0,0.22,0.05,0.45,0.09,0.66c0.3,2.45-3.15,6.75-4.66,7.89C513.25,165.25,513.6,167.79,520.2,172.48z"/>
					<path class="st11" d="M517.33,148.05L517.33,148.05c0.01,0.09,0.01,0.18,0,0.27c0.51,2.9,1,5.13,1.3,6.9
						c0.05,0.21,0.08,0.43,0.1,0.65l0,0c0.03,0.23,0.04,0.46,0.04,0.69l0,0c4.21-2.01,7.71-5.27,10.02-9.33l0,0
						c-0.13-0.69-0.46-1.34-0.96-1.84c-1.37-1.41-3.61-1.45-5.02-0.09L517.33,148.05z"/>
					<path class="st10" d="M529.7,126.77c1.59,10.02,2.49,14.21-1.27,20.49c-5.66,9.44-18,9.44-22.54,0.15
						c-4.01-8.38-5.99-23.31,2.58-29.61C517.05,111.52,528.1,116.75,529.7,126.77z"/>
					<path class="st10" d="M535.67,134.51c-0.62,2.34-2.17,4.12-3.78,5.03c-2.43,1.36-4.92-2.47-4.73-5.33
						c0.16-2.57,2.31-4.82,4.99-5C534.78,129.04,536.38,131.84,535.67,134.51z"/>
					<path class="st12" d="M530.02,135.48c-0.19-0.95,0.01-1.97,0.55-2.78c0.54-0.81,1.4-1.39,2.35-1.58"/>
					<g>
						<g>
							<path class="st6" d="M517.48,133.44c0.23,1.06-0.1,2.07-0.74,2.25c-0.64,0.19-1.36-0.51-1.59-1.57
								c-0.23-1.06,0.1-2.07,0.74-2.25C516.54,131.68,517.25,132.38,517.48,133.44z"/>
							<path class="st6" d="M507.75,136.04c0.22,1.02-0.11,2.01-0.76,2.2c-0.64,0.19-1.35-0.49-1.57-1.51
								c-0.22-1.02,0.11-2.01,0.76-2.2C506.83,134.34,507.53,135.02,507.75,136.04z"/>
							<path class="st6" d="M518.56,129.25c-0.12,0.05-0.26,0.05-0.38-0.02c-1.9-1-3.48-0.04-3.49-0.03
								c-0.23,0.14-0.53,0.07-0.66-0.17c-0.13-0.24-0.04-0.56,0.2-0.71c0.08-0.05,2.06-1.25,4.42-0.02
								c0.23,0.12,0.32,0.43,0.19,0.69C518.77,129.11,518.67,129.2,518.56,129.25z"/>
							<path class="st6" d="M503.14,131.98c-0.11-0.01-0.21-0.06-0.28-0.15c-0.15-0.2-0.12-0.51,0.07-0.7
								c1.91-1.88,3.84-1.37,3.92-1.34c0.23,0.06,0.35,0.33,0.28,0.6c-0.08,0.27-0.33,0.43-0.56,0.37c-0.08-0.02-1.58-0.39-3.1,1.1
								C503.38,131.94,503.26,131.99,503.14,131.98z"/>
							<path class="st13" d="M510.27,134.84c0,0-0.54,4.11-1.66,6.88c-0.2,0.48,0.15,1.02,0.67,1.07c1.34,0.12,2.65-0.67,2.65-0.67
								L510.27,134.84z"/>
						</g>
						<path class="st6" d="M516.28,131.81l-2.41,0.08C513.87,131.89,515.56,133.24,516.28,131.81z"/>
						<path class="st6" d="M506.42,134.49l-2.41,0.08C504.01,134.57,505.71,135.92,506.42,134.49z"/>
					</g>
				</g>
				<path class="st6" d="M526.69,129.84c0,0-6.89-5.47-8.08-11.01c0,0-21.22-0.81-16.13,16.45c0,0-7.18-14.42,9.03-19.94
					c16.21-5.52,23.61,15.61,17.44,24.57C528.9,139.83,530.96,133.27,526.69,129.84z"/>
				<path class="st6" d="M504.33,118.89c-1.81,2.5-2.77,5.52-2.76,8.61c0.4,2.17,3.64,3.2,3.64,3.2l2.75-5.39l0.76,4.16
					c5.79-1.73,8.64-5.49,9.84-10.38l-4.37-5.28C514.18,113.8,505.98,116.84,504.33,118.89z"/>
			</g>
			<path class="st14" d="M516.07,143.91c0.66,0.11,1.37-0.12,1.86-0.59c0.48-0.47,0.72-1.17,0.63-1.84"/>
			<path class="st11" d="M535.84,140.66c0,0,7.48-9.28,1.62-17.18c0,0,4.31,2.97,3.49,8.09
				C540.31,135.6,538.56,138.86,535.84,140.66z"/>
		</g>
		<path class="st11" d="M558.33,309.95L558.33,309.95c-8.8,2.97-17.96,4.7-27.24,5.13c-0.69-6.13-1.51-12.88-2.39-19.85
			c-2.55,6.14-5.48,12.66-8.84,19.52c-8.58-0.78-16.93-3.2-24.59-7.13c1.71-13.63,4.25-28.45,6.75-41.49
			c3.41-2,7.09-3.49,10.93-4.41c3.65-0.88,7.39-1.33,11.15-1.35c5.47-0.03,10.93,0.48,16.3,1.5c6.98,1.31,13.8,3.33,20.37,6.05
			C561.23,281.97,560.41,296.04,558.33,309.95z"/>
		<path class="st6" d="M508.95,226.64h42.69l1.16,5.51c0,0,15.68,21.7,7.73,75.82c0,0-34.35,3.97-66.7-2.97
			c0,0,7.26-55.6,14.85-73.76L508.95,226.64z"/>
		<g>
			<path class="st4" d="M549.48,209.85l3.04,22.7l-46.8-1.89c-0.12-4.88,4.23-17.82,3.72-21.36c-1.42-4.37-8.61-10.97-10.52-16.25
				c-2.04-7.33,2.17-27.5,3.55-28.14c1.67-0.77,3.74-0.71,5.02-1.27c4.97-1.17,16.27-5.21,21.33-5.83c0.98-0.09,1.95-0.27,2.92-0.38
				c0,0,19.15-0.92,19.99,6.87C551.82,164.74,547.17,185.17,549.48,209.85z"/>
			<polygon class="st11" points="549.11,205.04 548.73,198.82 541.64,179.51 547.2,202.24 529.59,208.41 			"/>
			<path class="st11" d="M528.73,225.3c0.63-0.08,6.18-6.12,6.18-6.12l15.9,0.6l-0.77-5.75c0.47-0.37-18.57,0.5-18.57,0.5
				l-2.74,5.93V225.3z"/>
			<path class="st4" d="M544.51,159.24c0.82,0.1,4.15-1.78,10.16,5.93c6.01,7.72,12.74,37.14,13.12,41.43
				c0.48,5.45-3.15,8.14-6.77,8.74c-10.87,1.79-30.93,2.16-30.93,2.16v-9.24l20.01-4.53c0,0-11.36-27.34-9.57-34.39
				C542.33,162.3,544.51,159.24,544.51,159.24z"/>
		</g>
		<path class="st10" d="M535.51,157.41c-1.45,7.86-7.32,14.02-15.06,16.01c-2.71,0.65-5.75-0.85-7.89-2.63
			c-2.17-1.81-3.62-4.35-4.08-7.14C517.9,159.94,526.43,156.75,535.51,157.41z"/>
		<path class="st11" d="M550.1,203.73c0,0,3.25-0.18,4.63,1.59c0,0-0.83-3.4-5.08-2.68L550.1,203.73z"/>
	</g>
	<g>
		<g>
			<path class="st4" d="M523.62,263.02V159.98H420.73v41.17c1.86,0.71,7.96,1.18,9.81,0.48c3.25-1.21,1.13-4.95,4.26-6.43
				c4.63-2.18,10.39,0.89,12.81,5.39c1.88,3.49,2.23,5.32,2.06,8.34c0.17,3.02-0.18,4.85-2.06,8.34c-2.42,4.5-8.19,7.57-12.81,5.39
				c-3.14-1.48-0.59-5.13-3.83-6.34c-1.85-0.69-8.38-0.32-10.24,0.39v46.29h46.01c0.05,1-0.06,2.01-0.42,2.96
				c-1.21,3.25-4.66,5.18-6.14,8.32c-2.18,4.63,0.89,10.39,5.39,12.81c3.49,1.88,5.32,2.23,8.34,2.06c3.02,0.17,4.85-0.18,8.34-2.06
				c4.5-2.42,7.57-8.19,5.39-12.81c-1.48-3.14-4.93-5.07-6.14-8.32c-0.36-0.95-0.47-1.96-0.41-2.96H523.62z"/>
		</g>
		<g>
			<g>
				<path class="st4" d="M528.73,263.02V159.98H425.84v41.17c1.86,0.71,3.91,0.88,5.76,0.19c3.25-1.21,5.18-4.66,8.32-6.14
					c4.63-2.18,10.39,0.89,12.81,5.39c1.88,3.49,2.23,5.32,2.06,8.34c0.17,3.02-0.18,4.85-2.06,8.34c-2.42,4.5-8.19,7.57-12.81,5.39
					c-3.14-1.48-5.07-4.93-8.32-6.14c-1.85-0.69-3.89-0.51-5.76,0.19v46.29h46.01c0.05,1-0.06,2.01-0.42,2.96
					c-1.21,3.25-4.66,5.18-6.14,8.32c-2.18,4.63,0.89,10.39,5.39,12.81c3.49,1.88,5.32,2.23,8.34,2.06
					c3.02,0.17,4.85-0.18,8.34-2.06c4.5-2.42,7.57-8.19,5.39-12.81c-1.48-3.14-4.93-5.07-6.14-8.32c-0.36-0.95-0.47-1.96-0.41-2.96
					H528.73z"/>
			</g>
			<g class="st15">
				<path class="st9" d="M528.73,263.02V159.98H425.84v41.17c1.86,0.71,3.91,0.88,5.76,0.19c3.25-1.21,5.18-4.66,8.32-6.14
					c4.63-2.18,10.39,0.89,12.81,5.39c1.88,3.49,2.23,5.32,2.06,8.34c0.17,3.02-0.18,4.85-2.06,8.34c-2.42,4.5-8.19,7.57-12.81,5.39
					c-3.14-1.48-5.07-4.93-8.32-6.14c-1.85-0.69-3.89-0.51-5.76,0.19v46.29h46.01c0.05,1-0.06,2.01-0.42,2.96
					c-1.21,3.25-4.66,5.18-6.14,8.32c-2.18,4.63,0.89,10.39,5.39,12.81c3.49,1.88,5.32,2.23,8.34,2.06
					c3.02,0.17,4.85-0.18,8.34-2.06c4.5-2.42,7.57-8.19,5.39-12.81c-1.48-3.14-4.93-5.07-6.14-8.32c-0.36-0.95-0.47-1.96-0.41-2.96
					H528.73z"/>
			</g>
			<g>
				<g>
					<g>
						<path class="st10" d="M528.73,210.07c0,0-6.91,1.73-7.66,3.35c-0.76,1.62,1.8,1.5,1.8,1.5s-2.8,0.31-2.83,1.52
							c-0.04,1.45,2.64,1.31,2.64,1.31s-2.28,0.35-2.23,1.42c0.05,1.12,3.08,1.17,3.08,1.17s-1.56,0.55-1.1,1.28
							c0.46,0.73,6.89,0.97,8.78-0.24c1.89-1.2,1.9-9.47,1.53-11.28c-0.37-1.8-1.74-2.78-4-5.52V210.07L528.73,210.07z"/>
					</g>
					<g>
						<path class="st7" d="M522.87,215.05c0,0,0.01,0,0.01,0l4.86-0.77c0.07-0.01,0.11-0.08,0.1-0.15
							c-0.01-0.07-0.07-0.13-0.14-0.12l-4.86,0.77c-0.07,0.01-0.11,0.08-0.1,0.15C522.76,215.01,522.81,215.06,522.87,215.05z"/>
					</g>
					<g>
						<path class="st7" d="M522.82,217.87C522.82,217.87,522.82,217.87,522.82,217.87l4.73-0.37c0.07-0.01,0.11-0.07,0.11-0.14
							c-0.01-0.07-0.05-0.12-0.13-0.13l-4.73,0.37c-0.07,0.01-0.11,0.07-0.11,0.14C522.7,217.82,522.76,217.87,522.82,217.87z"/>
					</g>
					<g>
						<path class="st7" d="M523.69,220.46l3.52-0.18c0.07,0,0.12-0.07,0.11-0.14c0-0.07-0.06-0.13-0.13-0.13l-3.52,0.18
							c-0.07,0-0.12,0.07-0.11,0.14C523.57,220.41,523.63,220.47,523.69,220.46z"/>
					</g>
				</g>
			</g>
		</g>
		<g>
			<g>
				<g>
					<path class="st10" d="M449.75,207.34c0,0,7.4,2.07,8.15,3.69c0.76,1.63-1.8,1.5-1.8,1.5s2.8,0.31,2.83,1.52
						c0.04,1.45-2.64,1.31-2.64,1.31s2.28,0.35,2.23,1.42c-0.05,1.12-3.08,1.17-3.08,1.17s1.56,0.55,1.1,1.28
						c-0.46,0.73-6.89,0.97-8.78-0.24c-1.89-1.2-1.9-9.47-1.53-11.28c0.37-1.8,0.52-1.51,2.79-4.25l0.41,1.53
						c0.11,0.42,0.19,0.84,0.22,1.27L449.75,207.34z"/>
				</g>
				<g>
					<path class="st7" d="M456.1,212.67c0,0-0.01,0-0.01,0l-4.86-0.77c-0.07-0.01-0.11-0.08-0.1-0.15c0.01-0.07,0.07-0.13,0.14-0.12
						l4.86,0.77c0.07,0.01,0.11,0.08,0.1,0.15C456.22,212.62,456.16,212.67,456.1,212.67z"/>
				</g>
				<g>
					<path class="st7" d="M456.15,215.48C456.15,215.48,456.15,215.48,456.15,215.48l-4.73-0.37c-0.07-0.01-0.11-0.07-0.11-0.14
						c0.01-0.07,0.05-0.12,0.13-0.13l4.73,0.37c0.07,0.01,0.11,0.07,0.11,0.14C456.28,215.43,456.22,215.49,456.15,215.48z"/>
				</g>
				<g>
					<path class="st7" d="M455.28,218.08l-3.52-0.18c-0.07,0-0.12-0.07-0.11-0.14c0-0.07,0.06-0.13,0.13-0.13l3.52,0.18
						c0.07,0,0.12,0.07,0.11,0.14C455.41,218.02,455.35,218.08,455.28,218.08z"/>
				</g>
			</g>
		</g>
	</g>
</g>
<g id="Character_2">
	<g>
		<g>
			<polygon class="st10" points="298.18,436.76 308.39,437.76 315.94,411.9 300.4,410.21 			"/>
			<g>
				<path class="st6" d="M309.87,433.25h-3.65c-0.82,0-1.59,0.42-2.08,1.08c-2.1,2.87-3.68,1.79-5.97-0.91
					c-1.45-0.17-1.85,1.5-1.96,1.95l-2.73,9.91c-0.24,0.83,0.24,1.69,1.07,1.93c0.15,0.04,0.3,0.06,0.45,0.06c4.43,0,6.52,0,12.03,0
					h16.85c4.59,0,5.55-4.63,3.65-5.06c-8.51-1.88-14.54-4.38-17.17-6.86C309.9,434.91,310.4,434.59,309.87,433.25z"/>
				<path class="st4" d="M317.78,436.07c0.38-0.28,0.61-0.72,0.62-1.19c0.03-0.25-0.08-0.5-0.3-0.64c-1.14-0.81-5.7,1.32-6.21,1.57
					c-0.06,0.02-0.1,0.07-0.12,0.12c-0.04,0.11,0.02,0.22,0.12,0.26c1.12,0.27,2.27,0.41,3.42,0.44
					C316.17,436.71,317.04,436.51,317.78,436.07z M317.82,434.58c0.09,0.06,0.14,0.17,0.12,0.27c-0.02,0.34-0.18,0.66-0.45,0.87
					c-1.04,0.77-3.54,0.44-4.88,0.19C314.5,435.08,317.19,434.14,317.82,434.58z"/>
				<path class="st4" d="M312.05,436.23c1.37-0.57,4.24-2.82,4.08-4.01c-0.02-0.25-0.2-0.55-0.82-0.63c-2.5-0.29-3.57,4.2-3.57,4.39
					c-0.02,0.08,0,0.16,0.06,0.21c0.05,0.01,0.1,0.01,0.14,0L312.05,436.23z M315.22,431.96c0.46,0.05,0.46,0.21,0.46,0.27
					c0.13,0.73-1.95,2.59-3.44,3.38c0.31-1.05,1.23-3.67,2.81-3.67L315.22,431.96z"/>
				<path class="st8" d="M312.4,436.06c-1.26,0.17-2.42,0.92-3.1,1.99"/>
				<path class="st8" d="M314.67,437.77c-1.26,0.17-2.42,0.92-3.1,1.99"/>
				<path class="st8" d="M317.49,439.2c-1.26,0.17-2.42,0.92-3.1,1.99"/>
			</g>
			<polygon class="st15" points="311.95,425.57 311.03,428.74 299.01,426.89 299.22,424.29 			"/>
		</g>
		<g>
			<polygon class="st10" points="357.63,436.76 367.84,437.76 375.38,411.9 359.85,410.21 			"/>
			<g>
				<path class="st6" d="M369.32,433.25h-3.65c-0.83,0-1.59,0.42-2.08,1.08c-2.1,2.87-3.68,1.79-5.97-0.91
					c-1.45-0.17-1.85,1.5-1.96,1.95l-2.73,9.91c-0.24,0.83,0.24,1.69,1.07,1.93c0.15,0.04,0.3,0.06,0.45,0.06c4.43,0,6.52,0,12.03,0
					h16.85c4.59,0,5.55-4.63,3.65-5.06c-8.51-1.88-14.54-4.38-17.17-6.86C369.35,434.91,369.85,434.59,369.32,433.25z"/>
				<path class="st4" d="M377.23,436.07c0.38-0.28,0.61-0.72,0.62-1.19c0.03-0.25-0.08-0.5-0.3-0.64c-1.14-0.81-5.7,1.32-6.21,1.57
					c-0.06,0.02-0.1,0.07-0.12,0.12c-0.04,0.11,0.02,0.22,0.12,0.26c1.12,0.27,2.26,0.41,3.42,0.44
					C375.62,436.71,376.48,436.51,377.23,436.07z M377.26,434.58c0.09,0.06,0.14,0.17,0.12,0.27c-0.02,0.34-0.18,0.66-0.45,0.87
					c-1.04,0.77-3.54,0.44-4.88,0.19C373.94,435.08,376.63,434.14,377.26,434.58z"/>
				<path class="st4" d="M371.49,436.23c1.37-0.57,4.24-2.82,4.08-4.01c-0.02-0.25-0.2-0.55-0.82-0.63c-2.5-0.29-3.57,4.2-3.57,4.39
					c-0.02,0.08,0,0.16,0.06,0.21c0.05,0.01,0.1,0.01,0.14,0L371.49,436.23z M374.67,431.96c0.46,0.05,0.46,0.21,0.46,0.27
					c0.13,0.73-1.95,2.59-3.44,3.38c0.31-1.05,1.23-3.67,2.81-3.67L374.67,431.96z"/>
				<path class="st8" d="M371.85,436.06c-1.26,0.17-2.42,0.92-3.1,1.99"/>
				<path class="st8" d="M374.11,437.77c-1.26,0.17-2.42,0.92-3.1,1.99"/>
				<path class="st8" d="M376.93,439.2c-1.26,0.17-2.42,0.92-3.1,1.99"/>
			</g>
			<polygon class="st15" points="371.4,425.57 370.47,428.74 358.45,426.89 358.67,424.29 			"/>
		</g>
		<g>
			<g>
				<g>
					<g>
						<g>
							<path class="st4" d="M379.45,241.92c0,0,8.46,37.38,12.5,69.93c1.23,9.92,1.46,23.19-0.71,32.96l-16.31,81.1l-20.53-2.06
								c3.23-34.98,7.72-78.12,9.01-96.47c-4.52-21.51-14.14-47.55-23.6-73.44L379.45,241.92z"/>
						</g>
					</g>
				</g>
				<g class="st11">
					<g>
						<g>
							<path d="M379.45,241.92c0,0,8.46,37.38,12.5,69.93c1.23,9.92,1.46,23.19-0.71,32.96l-16.31,81.1l-20.53-2.06
								c3.23-34.98,7.72-78.12,9.01-96.47c-4.52-21.51-14.14-47.55-23.6-73.44L379.45,241.92z"/>
						</g>
					</g>
				</g>
				<path class="st4" d="M312,333.92c0.46-2.02,1.21-6.13,2.12-11.55c-0.03-0.01-0.06-0.01-0.08-0.02
					c0.67-7.17,1.9-40.41,4.17-61.61c1.74-13.51,5.19-22.64,8.67-27.12c0.18-0.23,0.34-0.44,0.49-0.62
					c0.58-0.72,0.93-1.12,0.93-1.12c0.66,0.17,1.32,0.32,1.97,0.46c0.24,0.05,0.49,0.11,0.73,0.16c24.54,5.13,46.13-1.32,46.13-1.32
					c2.26,5.58,3.95,17.47,5.59,29.81c-2.57,2.82-13.83,6.47-26.75,8.89l-3.69,16.67c-1.94,10.33-4.43,20.47-6.54,29.59l-2.21,9.99
					c-0.13,0.66-0.27,1.31-0.39,1.94c-1.12,5.75-27.8,98.32-27.8,98.32l-17.38-1.02C297.95,425.39,305.71,361.31,312,333.92z"/>
				<path class="st11" d="M312,333.92c0.46-2.02,1.21-6.13,2.12-11.55c-0.03-0.01-0.06-0.01-0.08-0.02
					c0.67-7.17,1.9-40.41,4.17-61.61c1.74-13.51,5.19-22.64,8.67-27.12c0.18-0.23,0.34-0.44,0.49-0.62
					c0.58-0.72,0.93-1.12,0.93-1.12c0.66,0.17,1.32,0.32,1.97,0.46c0.24,0.05,0.49,0.11,0.73,0.16c24.54,5.13,46.13-1.32,46.13-1.32
					c2.26,5.58,3.95,17.47,5.59,29.81c-2.57,2.82-13.83,6.47-26.75,8.89l-3.69,16.67c-1.94,10.33-4.43,20.47-6.54,29.59l-2.21,9.99
					c-0.13,0.66-0.27,1.31-0.39,1.94c-1.12,5.75-27.8,98.32-27.8,98.32l-17.38-1.02C297.95,425.39,305.71,361.31,312,333.92z"/>
			</g>
			<path class="st11" d="M352.04,288.09c-0.07,0.34,7.96-28.84,7.96-28.84s6.76,26.05-3.53,42.35L352.04,288.09z"/>
		</g>
		<g>
			<path class="st10" d="M334.76,156.43c0,0,4.08,3.14,9.34,7.67c1.09,0.94,2.3,1.76,3.58,2.44c3.44,1.83,6.58,2.88,7.43,1.22
				c0.19-0.37,0.33-0.76,0.44-1.18c0.72-2.78,0.43-6.69-1.82-8.48c-2.53-2.02-3.76-3.74-3.3-6.47c0.24-1.55,0.8-3.15,1.45-4.7
				l-1.99-2.33l-10.43-10.53C339.72,141.09,340.26,152.61,334.76,156.43z"/>
			<path class="st7" d="M350.35,152.22c-2.87-1.7-6.02-4.66-5.64-8.03c0.17-1.42,0.47-2.77,0.82-3.63l5.83,7.71
				C350.87,149.52,350.7,150.34,350.35,152.22z"/>
			<path class="st10" d="M336.51,122.77c0.98,10.72,1.17,15.26,6.7,20.88c8.32,8.45,21.12,5.61,23.32-5.01
				c1.98-9.56,0.04-25.48-10.48-29.99C345.69,104.22,335.53,112.05,336.51,122.77z"/>
			<path class="st6" d="M349.86,126.15c0.06,1,0.67,1.83,1.38,1.84c0.7,0.01,1.23-0.79,1.18-1.79c-0.06-1-0.67-1.83-1.38-1.84
				C350.33,124.35,349.8,125.15,349.86,126.15z"/>
			<path class="st6" d="M360.97,126c0.06,0.97,0.67,1.77,1.37,1.79c0.7,0.01,1.23-0.76,1.17-1.73c-0.06-0.97-0.67-1.77-1.37-1.79
				C361.43,124.25,360.91,125.03,360.97,126z"/>
			<path class="st6" d="M348.16,122.31c0.14,0.02,0.28-0.02,0.38-0.12c1.65-1.53,3.51-0.99,3.53-0.99c0.28,0.08,0.55-0.08,0.62-0.36
				c0.06-0.28-0.11-0.58-0.39-0.66c-0.1-0.03-2.43-0.7-4.48,1.19c-0.2,0.19-0.21,0.52-0.01,0.75
				C347.9,122.23,348.03,122.3,348.16,122.31z"/>
			<path class="st6" d="M364.4,121.78c0.13,0.03,0.26,0.01,0.38-0.06c0.24-0.15,0.3-0.47,0.14-0.73c-1.6-2.54-3.99-2.69-4.09-2.7
				c-0.29-0.01-0.51,0.21-0.51,0.5c0.01,0.29,0.24,0.54,0.52,0.56c0.09,0,1.94,0.15,3.22,2.17
				C364.14,121.66,364.26,121.74,364.4,121.78z"/>
			<path class="st6" d="M341.08,129.49c0,0,3.31-5,1.94-14.73c-0.23-1.63,0.8-3.18,2.42-3.49c4.62-0.9,10.81-6.73,18.35,4.85
				c0,0-3.6-13.88-24.66-8.29c-18.74,4.97-5.91,20.86-3.98,22.49C337.09,131.96,341.08,129.49,341.08,129.49z"/>
			<path class="st10" d="M333.27,131.51c1.27,2.2,3.32,3.58,5.21,4.05c2.84,0.71,4.3-3.85,3.33-6.69c-0.87-2.56-3.66-4.25-6.42-3.69
				C332.67,125.72,331.82,128.99,333.27,131.51z"/>
			<g>
				<path class="st6" d="M358.26,136.47c-0.87,1.34-1.92,3.95-1.92,3.95c-0.25-0.05-0.51-0.1-0.76-0.17
					c-3.41-0.8-4.73-2.3-5.16-3.71c-0.23-0.78-0.19-1.54-0.07-2.14c0.13-0.7,0.38-1.16,0.38-1.16c1.56,1.5,4.68,2.49,6.37,2.95
					C357.81,136.38,358.26,136.47,358.26,136.47z"/>
				<path class="st9" d="M357.11,136.18l-0.6,1.15c-3.21-0.76-5.37-1.73-6.15-2.94c0.13-0.7,0.38-1.16,0.38-1.16
					C352.29,134.73,355.42,135.72,357.11,136.18z"/>
				<path class="st16" d="M355.59,140.24c-3.41-0.8-4.73-2.3-5.16-3.71c1.15,0.32,2.51,0.83,3.61,1.64
					C354.89,138.78,355.34,139.53,355.59,140.24z"/>
			</g>
			<path class="st13" d="M358.09,125.7c0,0,1.68,4.01,3.57,6.51c0.33,0.44,0.13,1.08-0.39,1.26c-1.32,0.49-2.87,0.05-2.87,0.05
				L358.09,125.7z"/>
			<path class="st6" d="M350.82,124.34l2.46-0.58C353.28,123.75,351.93,125.59,350.82,124.34z"/>
			<path class="st6" d="M361.88,124.29l2.46-0.58C364.34,123.71,363,125.54,361.88,124.29z"/>
			<g>
				<path class="st6" d="M365.67,120.66c0,0,6.49-7.68,2.16-14.01c-1.63-2.38-4.62-2.73-7.25-3.9c-6.09-2.68-11.02-3.22-18.78,4.39
					c-8.08,7.92-9.54,10.59-0.63,20.34c0,0-0.96-1.28,2.33-4.18c3.29-2.9,6.93-5.49,5.17-8.3c0,0,2.74,1.06,2.94,3.66l4.82-1.32
					c0,0-0.21-1.86-1.48-3.73c0,0,2.5,1.47,3.31,3.63l4.17,0.78c0,0-0.61-3.82-1.79-5.2C360.62,112.84,364.43,116.77,365.67,120.66z
					"/>
			</g>
		</g>
		<path class="st12" d="M339.64,131.19c-0.09-1.01-0.56-1.98-1.29-2.68c-0.74-0.7-1.73-1.12-2.75-1.16"/>
		<g>
			<g>
				<path class="st6" d="M390.59,220.13c-0.6-0.46-1.18-0.98-1.71-1.54c-0.46-0.48-0.77-1.09-0.66-1.09
					c-0.02-0.07-0.05-0.14-0.08-0.2l-0.19-0.45l-0.47-1.2c-0.32-0.86-0.62-1.8-0.92-2.75c-0.63-1.89-1.23-3.86-1.81-5.85
					c-1.17-3.98-2.29-8.01-3.42-12.06l-2.08-8.48c-0.3-1.37-0.77-3.38-1.39-5.66l0-0.01l0,0c-1.69-6.23-4.51-14.54-8.2-17.84
					c-5.72-4.38-9.38,1.02-11.74,6.64c-2.26,5.39,3.32,20.13,3.32,20.13l6.8-0.49c0.86,3.14,1.76,6.25,2.65,9.44
					c1.16,4.15,2.54,8.23,3.92,12.31c0.7,2.05,1.43,4.09,2.23,6.15c0.47,1.05,0.9,2.08,1.38,3.17c0.23,0.54,0.5,1.11,0.79,1.68
					l0.51,0.95c0.21,0.4,0.45,0.78,0.72,1.14c1.01,1.3,2.25,2.35,3.64,3.08c1.07,0.6,2.2,1.07,3.37,1.4
					c2.12,0.61,4.31,0.88,6.5,0.78l1.23-5.94C393.51,222.34,391.9,221.2,390.59,220.13z"/>
				<path class="st17" d="M390.59,220.13c-0.6-0.46-1.18-0.98-1.71-1.54c-0.46-0.48-0.77-1.09-0.66-1.09
					c-0.02-0.07-0.05-0.14-0.08-0.2l-0.19-0.45l-0.47-1.2c-0.32-0.86-0.62-1.8-0.92-2.75c-0.63-1.89-1.23-3.86-1.81-5.85
					c-1.17-3.98-2.29-8.01-3.42-12.06l-2.08-8.48c-0.3-1.37-0.77-3.38-1.39-5.66l0-0.01l0,0c-1.69-6.23-4.51-14.54-8.2-17.84
					c-5.72-4.38-9.38,1.02-11.74,6.64c-2.26,5.39,3.32,20.13,3.32,20.13l6.8-0.49c0.86,3.14,1.76,6.25,2.65,9.44
					c1.16,4.15,2.54,8.23,3.92,12.31c0.7,2.05,1.43,4.09,2.23,6.15c0.47,1.05,0.9,2.08,1.38,3.17c0.23,0.54,0.5,1.11,0.79,1.68
					l0.51,0.95c0.21,0.4,0.45,0.78,0.72,1.14c1.01,1.3,2.25,2.35,3.64,3.08c1.07,0.6,2.2,1.07,3.37,1.4
					c2.12,0.61,4.31,0.88,6.5,0.78l1.23-5.94C393.51,222.34,391.9,221.2,390.59,220.13z"/>
				<g class="st15">
					<path d="M370.92,172.57c1.15,1.96,1.54,3.08,2.26,5.34c0.72,2.26,1.54,14.47-2.59,18.08v-8.47
						C370.74,182.34,370.77,177.76,370.92,172.57z"/>
				</g>
				<path class="st6" d="M320.21,188.02l-6.38-21.77c4.04-6.03,24.02-10.66,24.02-10.66l10.24,3.59l2.92-2.87
					c0,0,5.06,1.13,9.39,2.54c5.78,1.89,8.91,3.4,10.29,6.61c0,0,2.41,7.11,0.96,21.76c-0.4,4.03,0.05,24.97,1.18,31.89l6.81,21.57
					c-24.05,18.73-57.73,1.24-57.73,1.24c1.08-3.31,4.68-13.46,5.17-16.7c-0.35-4.12,0.14-10.48-1.61-17.71
					C325.15,206.13,320.79,189.37,320.21,188.02z"/>
				<path class="st17" d="M320.21,188.02l-6.38-21.77c4.04-6.03,24.02-10.66,24.02-10.66l10.24,3.59l2.92-2.87
					c0,0,5.06,1.13,9.39,2.54c5.78,1.89,8.91,3.4,10.29,6.61c0,0,2.41,7.11,0.96,21.76c-0.4,4.03,0.05,24.97,1.18,31.89l6.81,21.57
					c-24.05,18.73-57.73,1.24-57.73,1.24c1.08-3.31,4.68-13.46,5.17-16.7c-0.35-4.12,0.14-10.48-1.61-17.71
					C325.15,206.13,320.79,189.37,320.21,188.02z"/>
			</g>
			<path class="st4" d="M393.29,211.46c0.75-9.06,7.73-16.36,16.75-17.5l-1.85,3.08l3.52-2.09l-16.15,20.26L393.29,211.46z"/>
			<path class="st18" d="M393.29,211.46c0.75-9.06,7.73-16.36,16.75-17.5l-1.85,3.08l3.52-2.09l-16.15,20.26L393.29,211.46z"/>
			<path class="st4" d="M367.98,194.83l5.55-0.17l26.58,9.01l-24.23,37.01l-23.84-5.95c-1.36-0.38-2.16-1.78-1.78-3.14
				c0.06-0.2,0.14-0.4,0.24-0.58l9.63-17.41c0.19-0.34,0.19-0.76,0-1.11l-1.31-2.32c-0.27-0.48-0.27-1.06,0-1.54l6.46-12.11
				C365.84,195.53,366.85,194.9,367.98,194.83z"/>
			<polygon class="st4" points="400.11,203.68 415.25,193.95 390.36,230.93 375.89,240.68 			"/>
			<polygon class="st11" points="400.11,203.68 415.25,193.95 390.36,230.93 375.89,240.68 			"/>
			<g>
				<g>
					<path class="st10" d="M397.14,220.87c0,0-5.88-1.54-7.17-0.53c-1.29,1.01,0.48,1.97,0.48,1.97s-2.02-0.91-2.63,0.06
						c-0.73,1.17,1.13,2.16,1.13,2.16s-1.69-0.66-2.18,0.23c-0.51,0.93,1.49,2.23,1.49,2.23s-1.31-0.2-1.36,0.58
						c-0.05,0.78,4.14,3.65,5.99,3.45c1.85-0.19,5.86-6.92,6.48-8.54c0.63-1.62,0.56-2.88-0.63-4.01L397.14,220.87L397.14,220.87z"
						/>
				</g>
				<g>
					<path class="st7" d="M390.38,222.42C390.39,222.42,390.39,222.42,390.38,222.42l3.63,1.39c0.05,0.02,0.11-0.02,0.14-0.08
						c0.03-0.06,0.01-0.13-0.04-0.15l-3.63-1.39c-0.05-0.02-0.11,0.02-0.14,0.08C390.33,222.33,390.34,222.4,390.38,222.42z"/>
				</g>
				<g>
					<path class="st7" d="M388.98,224.69C388.99,224.69,388.99,224.69,388.98,224.69l3.34,1.66c0.05,0.02,0.11-0.01,0.14-0.07
						c0.03-0.06,0.02-0.12-0.03-0.16l-3.34-1.66c-0.05-0.02-0.11,0.01-0.14,0.07C388.93,224.6,388.94,224.67,388.98,224.69z"/>
				</g>
				<g>
					<path class="st7" d="M388.31,227.16l2.44,1.32c0.05,0.02,0.11-0.01,0.14-0.07c0.03-0.06,0.02-0.13-0.02-0.16l-2.44-1.32
						c-0.05-0.02-0.11,0.01-0.14,0.07C388.26,227.07,388.27,227.14,388.31,227.16z"/>
				</g>
			</g>
			<polygon class="st6" points="354.78,157.23 350.34,152.93 348.09,159.18 338.22,151.32 333.22,156.81 345.61,165.44 
				348.09,159.96 354.78,164.98 			"/>
			<path class="st15" d="M354.78,157.23c0.31,0.48,0,7.75,0,7.75l-6.7-5.02l-2.48,5.48l-11.9-8.21l12.18,10.61l2.2-6.44l7.47,6.44
				L354.78,157.23z"/>
			<path class="st15" d="M361.12,190.94L327,223.82v-6.5c0,0,30.71-28.13,31.08-28.17C358.46,189.11,361.12,190.94,361.12,190.94z"
				/>
			<polygon class="st15" points="329.08,193.55 325.38,178.3 324.65,195.99 			"/>
		</g>
		<path class="st4" d="M335.2,135.28c0,1.13,0.92,2.05,2.05,2.05c1.13,0,2.05-0.92,2.05-2.05c0-1.13-0.92-2.05-2.05-2.05
			C336.12,133.23,335.2,134.14,335.2,135.28z"/>
		<g>
			<g>
				<path class="st6" d="M313.82,166.25c0,0-4.61,4.49-6.17,19.81c-1.11,11-3.93,34.71,4.61,37.76
					c8.55,3.05,45.81-32.59,45.81-32.59l-6.05-10.39l-27.39,15.15c0,0,2.79-25.12-2.03-27.41
					C317.79,166.29,313.82,166.25,313.82,166.25z"/>
				<path class="st17" d="M313.82,166.25c0,0-4.61,4.49-6.17,19.81c-1.11,11-3.93,34.71,4.61,37.76
					c8.55,3.05,45.81-32.59,45.81-32.59l-6.05-10.39l-27.39,15.15c0,0,2.79-25.12-2.03-27.41
					C317.79,166.29,313.82,166.25,313.82,166.25z"/>
			</g>
			<g>
				<path class="st10" d="M354.38,180.07c0,0,3.6-7.2,5.3-7.52c1.71-0.32,3.08,0.25,3.08,0.25s11.62-6.85,12.39-5.04
					c0.42,0.97-2.16,3.12-7.7,6.28c0,0,3.19,1.17,1.9,3.04c0,0,2.35,1.08,1.1,3.41c0,0,1.08,2.06-0.28,3.38
					c-1.36,1.32-7.74,4.95-11.44,5.49c-3.7,0.54-5.85-6.64-5.85-6.64L354.38,180.07z"/>
			</g>
		</g>
	</g>
</g>
<g id="Puzzle">
	<g>
		<path class="st4" d="M393.63,385.79c3.14,1.48,5.07,4.93,8.32,6.14c1.82,0.68,3.83,0.52,5.67-0.16v-46.33h-44.34
			c-0.06-1,0.06-2.01,0.41-2.96c1.21-3.25,4.66-5.18,6.14-8.32c2.18-4.63-0.89-10.39-5.39-12.81c-3.49-1.88-5.32-2.23-8.34-2.06
			c-3.02-0.17-4.85,0.18-8.34,2.06c-4.5,2.42-7.57,8.19-5.39,12.81c1.48,3.14,4.93,5.07,6.14,8.32c0.36,0.95,0.47,1.96,0.42,2.96
			h-44.34v103.04h103.04v-41.2c-1.84-0.68-3.85-0.84-5.67-0.16c-3.25,1.21-5.19,4.63-8.32,6.14c-4.16,2-10.37-0.9-12.81-5.39
			c-1.9-3.48-2.23-5.32-2.06-8.34c-0.17-3.02,0.18-4.85,2.06-8.34C383.24,386.68,389,383.61,393.63,385.79z"/>
		<path class="st19" d="M393.63,385.79c3.14,1.48,5.07,4.93,8.32,6.14c1.82,0.68,3.83,0.52,5.67-0.16v-46.33h-44.34
			c-0.06-1,0.06-2.01,0.41-2.96c1.21-3.25,4.66-5.18,6.14-8.32c2.18-4.63-0.89-10.39-5.39-12.81c-3.49-1.88-5.32-2.23-8.34-2.06
			c-3.02-0.17-4.85,0.18-8.34,2.06c-4.5,2.42-7.57,8.19-5.39,12.81c1.48,3.14,4.93,5.07,6.14,8.32c0.36,0.95,0.47,1.96,0.42,2.96
			h-44.34v103.04h103.04v-41.2c-1.84-0.68-3.85-0.84-5.67-0.16c-3.25,1.21-5.19,4.63-8.32,6.14c-4.16,2-10.37-0.9-12.81-5.39
			c-1.9-3.48-2.23-5.32-2.06-8.34c-0.17-3.02,0.18-4.85,2.06-8.34C383.24,386.68,389,383.61,393.63,385.79z"/>
		<path class="st4" d="M398.68,385.79c3.14,1.48,5.07,4.93,8.32,6.14c1.82,0.68,3.83,0.52,5.67-0.16v-46.33h-44.34
			c-0.05-1,0.06-2.01,0.42-2.96c1.21-3.25,4.66-5.18,6.14-8.32c2.18-4.63-0.89-10.39-5.39-12.81c-3.49-1.88-5.32-2.23-8.34-2.06
			c-3.02-0.17-4.85,0.18-8.34,2.06c-4.5,2.42-7.57,8.19-5.39,12.81c1.48,3.14,4.93,5.07,6.14,8.32c0.36,0.95,0.47,1.96,0.42,2.96
			h-44.34v103.04h103.04v-41.2c-1.84-0.68-3.85-0.84-5.67-0.16c-3.25,1.21-5.19,4.63-8.32,6.14c-4.16,2-10.37-0.9-12.81-5.39
			c-1.9-3.48-2.23-5.32-2.06-8.34c-0.17-3.02,0.18-4.85,2.06-8.34C388.29,386.68,394.05,383.61,398.68,385.79z"/>
	</g>
	<path class="st19" d="M395.56,413.97c0,0,3.57,6.39,9.7,5.86c6.13-0.53,7.41-3.2,7.41-3.2l-0.08-8.79l-13.67,5.23
		C397.97,413.85,396.84,414.11,395.56,413.97z"/>
</g>
<g id="Character_4">
	<g>
		<g>
			<g>
				<path class="st4" d="M522.44,359.58l35.22-13.53l20.33-19.71c0.56-0.65,6.46-10.82,6.46-10.82l9.98,21.37
					c0,0-24.81,24.93-33.9,27.83c-7.34,2.35-33.35,8.72-33.35,8.72L522.44,359.58z"/>
			</g>
			<path class="st19" d="M544.03,369.22c0,0,4.25-16.65,13.74-20.11c9.49-3.46,21.76,1.97,21.41,2.2
				c-0.35,0.23-10.63,9.8-10.98,9.92c-0.26,0.09-13.33,4.69-20.09,6.93L544.03,369.22z"/>
		</g>
		<g>
			<g>
				<g>
					<path class="st6" d="M480.09,345.97c-0.05,1,0.06,2.01,0.41,2.96c1.21,3.25,4.66,5.18,6.14,8.32
						c2.18,4.63-0.89,10.39-5.39,12.81c-3.49,1.88-5.32,2.23-8.34,2.06c-3.02,0.17-4.85-0.18-8.34-2.06
						c-4.5-2.42-7.57-8.19-5.39-12.81c1.48-3.14,4.93-5.07,6.14-8.32c0.36-0.95,0.47-1.96,0.42-2.96h-45.93v46.29
						c-1.87,0.71-3.91,0.88-5.76,0.19c-3.25-1.21-5.18-4.66-8.32-6.14c-4.63-2.18-10.39,0.89-12.81,5.39
						c-1.88,3.49-2.23,5.32-2.06,8.34c-0.17,3.02,0.18,4.85,2.06,8.34c2.42,4.5,8.19,7.57,12.81,5.39c3.14-1.48,5.07-4.93,8.32-6.14
						c1.85-0.69,3.89-0.51,5.76,0.19v41.17l102.68,0.46V346.43L480.09,345.97z"/>
				</g>
				<g class="st19">
					<path d="M480.09,345.97c-0.05,1,0.06,2.01,0.41,2.96c1.21,3.25,4.66,5.18,6.14,8.32c2.18,4.63-0.89,10.39-5.39,12.81
						c-3.49,1.88-5.32,2.23-8.34,2.06c-3.02,0.17-4.85-0.18-8.34-2.06c-4.5-2.42-7.57-8.19-5.39-12.81
						c1.48-3.14,4.93-5.07,6.14-8.32c0.36-0.95,0.47-1.96,0.42-2.96h-45.93v46.29c-1.87,0.71-3.91,0.88-5.76,0.19
						c-3.25-1.21-5.18-4.66-8.32-6.14c-4.63-2.18-10.39,0.89-12.81,5.39c-1.88,3.49-2.23,5.32-2.06,8.34
						c-0.17,3.02,0.18,4.85,2.06,8.34c2.42,4.5,8.19,7.57,12.81,5.39c3.14-1.48,5.07-4.93,8.32-6.14c1.85-0.69,3.89-0.51,5.76,0.19
						v41.17l102.68,0.46V346.43L480.09,345.97z"/>
				</g>
			</g>
			<g>
				<path class="st6" d="M484.63,345.97c-0.05,1,0.06,2.01,0.42,2.96c1.21,3.25,4.66,5.18,6.14,8.32
					c2.18,4.63-0.89,10.39-5.39,12.81c-3.49,1.88-5.32,2.23-8.34,2.06c-3.02,0.17-4.85-0.18-8.34-2.06
					c-4.5-2.42-7.57-8.19-5.39-12.81c1.48-3.14,4.93-5.07,6.14-8.32c0.36-0.95,0.47-1.96,0.42-2.96h-45.93v46.29
					c-1.87,0.71-3.91,0.88-5.76,0.19c-3.25-1.21-5.18-4.66-8.32-6.14c-4.63-2.18-10.39,0.89-12.81,5.39
					c-1.88,3.49-2.23,5.32-2.06,8.34c-0.17,3.02,0.18,4.85,2.06,8.34c2.42,4.5,8.19,7.57,12.81,5.39c3.14-1.48,5.07-4.93,8.32-6.14
					c1.85-0.69,3.89-0.51,5.76,0.19v41.17l102.68,0.46V346.43L484.63,345.97z"/>
			</g>
		</g>
		<g>
			<g>
				<path class="st20" d="M556.96,415.43l16.15-0.98c-2.58,14.23-5.24,23.46-4.11,30.76l-6.51,4.35l-6.03-5.93
					C556.46,443.64,555.35,432.01,556.96,415.43z"/>
				<g>
					<g>
						<g>
							<g>
								<path class="st4" d="M555.49,433.65l5.87,0.07c2.84,4.92,4.8,3.76,7.81,0.29c1.7-0.18,2.14,1.78,2.27,2.31l3.05,11.64
									c0.27,0.97-0.31,1.98-1.28,2.24c-0.17,0.05-0.35,0.07-0.53,0.06c-5.18-0.06-7.63-0.09-14.09-0.17l-19.73-0.23
									c-5.38-0.06-6.43-5.5-4.21-5.97c9.99-2.08,17.08-4.93,20.19-7.79C555.44,435.6,554.85,435.22,555.49,433.65z"/>
								<path class="st14" d="M552.49,436.91c1.47,0.22,2.82,1.11,3.6,2.38"/>
								<path class="st14" d="M549.82,438.88c1.47,0.22,2.82,1.11,3.6,2.38"/>
								<path class="st14" d="M546.5,440.52c1.47,0.22,2.82,1.11,3.6,2.38"/>
							</g>
						</g>
					</g>
					<path class="st21" d="M573.22,450.2c-0.17,0.05-0.35,0.07-0.53,0.06c-5.18-0.06-7.63-0.09-14.09-0.17l-19.73-0.23
						c-2.91-0.03-4.54-1.64-5.09-3.18c0.82,0.02,40.02,0.78,40.54,0.61l0.21,0.87C574.68,449.07,574.13,449.96,573.22,450.2z"/>
				</g>
			</g>
			<path class="st6" d="M618.81,372.59c0,0-44.11-22.78-52.7-23.43c-8.59-0.65-16.8,4-18.44,21.79
				c-1.64,17.78,1.64,63.52,1.64,63.52l23.79,0.41l2.95-52.98c0,0,36.85,26.92,37.94,26.64c1.09-0.27,15.48-0.92,15.48-0.92
				L618.81,372.59z"/>
			<path class="st22" d="M618.81,372.59c0,0-44.11-22.78-52.7-23.43c-8.59-0.65-16.8,4-18.44,21.79
				c-1.64,17.78,1.64,63.52,1.64,63.52l23.79,0.41l2.95-52.98c0,0,36.85,26.92,37.94,26.64c1.09-0.27,15.48-0.92,15.48-0.92
				L618.81,372.59z"/>
			<path class="st19" d="M574.71,406.67c0,0-19.44,6.81-19.65,22.84c-0.21,16.03,16.94,12.98,16.94,12.98L574.71,406.67z"/>
		</g>
		<g>
			<g>
				<path class="st20" d="M635.69,448.44l-4.37-15.9c15.29-1.65,25.5,2.11,32.6-1.25l6.4,5.33l-4.23,7.93
					C666.1,444.55,654.83,448.38,635.69,448.44z"/>
				<g>
					<g>
						<g>
							<g>
								<path class="st4" d="M656.21,448.55l-1.7-6c4.16-4.38,2.39-6.03-2.06-8.05c-0.7-1.68,1.17-2.72,1.67-3.01l10.95-6.62
									c0.91-0.56,2.11-0.28,2.67,0.63c0.1,0.16,0.18,0.34,0.23,0.52c1.5,5.3,2.21,7.81,4.08,14.41l5.71,20.18
									c1.56,5.5-3.67,8.21-4.82,6.09c-5.13-9.55-10.18-15.92-14.03-18.23C658.22,448.02,658,448.73,656.21,448.55z"/>
								<path class="st14" d="M660.44,450.63c-0.22-1.56,0.28-3.21,1.34-4.38"/>
								<path class="st14" d="M663.25,452.77c-0.22-1.56,0.28-3.21,1.34-4.38"/>
								<path class="st14" d="M665.92,455.66c-0.22-1.56,0.28-3.21,1.34-4.38"/>
							</g>
						</g>
					</g>
					<path class="st21" d="M667.74,425.49c0.1,0.16,0.18,0.34,0.23,0.52c1.5,5.3,2.21,7.81,4.08,14.41l5.71,20.18
						c0.84,2.98-0.3,5.13-1.71,6.14c-0.23-0.84-11.27-41.03-11.59-41.51l0.82-0.47C666.15,424.35,667.22,424.64,667.74,425.49z"/>
				</g>
			</g>
			<path class="st6" d="M667.15,381.28l1.91,9.61c0,0,4.91,19.07-1.97,28.65c-6.57,9.15-16.27,10.78-16.27,10.78l1.99,18.39
				l-1.99,1.24c0,0-12.69,0-38.66-1.19c-24.67-1.13-45.88-2.31-50.26-9.97c-4.38-7.66-5.39-11.38,1.77-20.52
				c6.47-8.26,55.73-20.42,57.44-20.92l-0.69-4.2l-0.8-2.97L667.15,381.28z"/>
			<path class="st22" d="M667.15,381.28l1.91,9.61c0,0,4.91,19.07-1.97,28.65c-6.57,9.15-16.27,10.78-16.27,10.78l1.99,18.39
				l-1.99,1.24c0,0-12.69,0-38.66-1.19c-24.67-1.13-45.88-2.31-50.26-9.97c-4.38-7.66-5.39-11.38,1.77-20.52
				c6.47-8.26,55.73-20.42,57.44-20.92l-0.69-4.2l-0.8-2.97L667.15,381.28z"/>
			<path class="st19" d="M650.82,430.32c-1.51,0.4-55.02-1.33-55.02-1.33s15.81,2.71,27.51,3.7
				C635.01,433.68,650.82,430.32,650.82,430.32z"/>
			<path class="st19" d="M621.11,397.37l30.81-5.37C651.92,391.99,629.72,391.63,621.11,397.37z"/>
		</g>
		<g>
			<g>
				<g>
					<g>
						<g>
							<path class="st20" d="M542.57,375.55c0,0-2.57-3.96-6.4-4.72c-3.83-0.77-6.68-2.4-9.56-2.77c-2.88-0.37-0.27,2.55,1.44,3.83
								c1.71,1.27,3.63,2.74,2.46,3.86c-1.16,1.13-14.67,4.55-16.11,6.3c-1.44,1.75,0.92,1.88,0.92,1.88s-3.26,0.92-3.25,2.31
								c0,0.36,0.6,1.2,2.15,1.01c3.49-0.42,10.77-1.68,10.77-1.68c-0.42,0.06-9.29,2.26-10.58,2.76c-1.68,0.66-2.14,1.82-1.73,2.78
								c0.59,1.37,11.68-0.98,12.21-0.75c0,0-6.43,1.14-7.04,2.96c-0.61,1.82,3.47,1.33,6.99,0.2c3.23-1.03,9.83-2.2,13.01-3.56
								c3.92-1.68,6.17-3.69,6.26-7.68C544.2,378.28,542.57,375.55,542.57,375.55z"/>
						</g>
					</g>
				</g>
			</g>
			<polygon class="st20" points="538.34,375.46 548.21,371.52 551.61,382.19 540.05,386.32 			"/>
		</g>
		<g>
			<g>
				<g>
					<g>
						<g>
							<path class="st20" d="M609.91,301.65c0,0-2.68-6.05-2.11-18.03c0-0.01-0.66-0.13-0.66-0.14c0.07-1.67,0.2-3.24,0.35-4.6
								c0-0.04,0-0.05,0-0.05l-13.06,13.14c1.22,3.5,1.59,10.73,1.52,13.83c0,0-0.67,5.76,6.43,4.3
								C607.57,309.04,609.91,301.65,609.91,301.65z"/>
							<path class="st7" d="M595.37,297.06l8.34-4.1c-0.14,2.93-1.79,6.77-7.87,8.5C595.85,301.47,595.73,298.25,595.37,297.06z"/>
						</g>
						<g>
							<path class="st20" d="M605.83,271.36c1.29,9.96,2.22,15.55-1.8,21.52c-6.04,8.98-18.78,6.87-23.03-2.54
								c-3.83-8.46-5.3-23.33,3.62-29.02C593.41,255.72,604.53,261.39,605.83,271.36z"/>
							<path class="st6" d="M601.99,257.34c-4.61-5.4-13.2-0.67-16.46,2.83c-0.49,0.52,8.34,3.02,7.82,2.93l2.79,2.31
								c0.36-0.16,1.1,3.27,1.73,6.23c0.58,2.72,1.88,5.23,3.78,7.27c1.59,1.71,3.72,3.75,6.12,5.41c3.11-2.34,2.16-8.36,2.56-12.13
								C610.92,266.58,610.79,256.07,601.99,257.34z"/>
							<path class="st20" d="M611.29,278.81c-0.3,2.69-1.82,4.97-3.58,6.32c-2.66,2.03-4.37-0.98-4.69-4.13
								c-0.29-2.84-0.13-6.4,3.05-7.18C609.2,273.05,611.64,275.74,611.29,278.81z"/>
							<path class="st6" d="M592.28,276.91c0.19,1.01-0.18,1.92-0.85,2.04c-0.66,0.12-1.35-0.6-1.55-1.61
								c-0.19-1.01,0.18-1.92,0.84-2.04C591.39,275.19,592.09,275.9,592.28,276.91z"/>
							<path class="st6" d="M582.44,279.01c0.19,1.01-0.18,1.92-0.84,2.04c-0.66,0.12-1.35-0.6-1.55-1.61
								c-0.19-1.01,0.18-1.92,0.85-2.04C581.55,277.28,582.24,278,582.44,279.01z"/>
							<path class="st23" d="M585.54,277.83c0,0-2.23,5.62-2.86,7.86c1.65,1,3.95-0.05,3.95-0.05L585.54,277.83z"/>
							<path class="st6" d="M593.83,271.69c-0.14,0.09-0.32,0.11-0.49,0.02c-1.92-0.98-3.47-0.13-3.48-0.12
								c-0.23,0.13-0.53,0.05-0.66-0.18c-0.13-0.23-0.05-0.52,0.18-0.65c0.08-0.05,2.02-1.11,4.4,0.1c0.24,0.12,0.33,0.41,0.21,0.64
								C593.95,271.58,593.9,271.65,593.83,271.69z"/>
							<path class="st24" d="M590.56,288.21c1.64-0.3,2.75-1.36,3.78-2.82"/>
						</g>
						<path class="st12" d="M608.52,276.53c-0.51-0.51-1.36-0.57-2.02-0.27c-0.66,0.3-1.13,0.9-1.44,1.56
							c-0.37,0.78-0.54,1.66-0.47,2.53"/>
					</g>
					<path class="st6" d="M577.26,275.6c-0.09,0-0.18-0.03-0.26-0.09c-0.22-0.15-0.27-0.45-0.13-0.67c1.5-2.18,3.71-2.12,3.81-2.13
						c0.26,0.01,0.47,0.23,0.47,0.5c-0.01,0.26-0.22,0.47-0.49,0.46c-0.09-0.01-1.79-0.03-3,1.72
						C577.57,275.53,577.41,275.6,577.26,275.6z"/>
				</g>
			</g>
			<path class="st6" d="M601.99,257.34c0,0-6.13-7.58-16.74-5.08c-8.53,2.01-12.98,8.25-13.15,14.22c-0.07,2.57,0.5,4.48,1.17,5.82
				c0.51,1.01,1.97,0.86,2.29-0.22c0.09-0.31,0.2-0.61,0.33-0.91c0.03,0.07,0.07,0.13,0.11,0.2c0.62,1.04,2.27,0.66,2.3-0.55
				c0.01-0.38,0.05-0.77,0.13-1.14c0.01,0.01,0.01,0.02,0.02,0.03c0.57,0.91,1.99,0.64,2.22-0.42c1-4.64,6.66-8.13,11.77-6.05
				l3.69,2.19C600.36,262.95,601.99,257.34,601.99,257.34z"/>
		</g>
		<polygon class="st19" points="617.91,390.48 617.33,394.38 600.12,399.56 604.09,402.1 621.11,397.37 621.82,389.79 		"/>
		<g>
			<g>
				<path class="st4" d="M630.76,302.88c-7.72-4.95-21.34-2.6-21.34-2.6l-24.97,15.24l17.08,40.14c0,0,7.13,17.07,10.97,28.44
					c0.95,2.82,2.77,6.75,5.72,6.36l47.43-8.57c2.32-0.42,3.78-2.73,3.15-5C664.22,360.34,637.68,307.31,630.76,302.88z"/>
				<path class="st19" d="M635.22,325.2c0,0-7.6,14.31-20.95,26.78c-5.39,5.04-9.13,12.3-9.13,12.3l-3.35-8.55L635.22,325.2z"/>
			</g>
			<g>
				<path class="st4" d="M611.71,314.18l-32.33,40.32l-37.96,17.23l3.78,15.71c0,0,30.78-8.3,43.15-16.01
					c12.37-7.71,32.77-29.27,32.77-29.27s17.79-14.27,16.94-25.82C637.2,304.79,620.27,302.09,611.71,314.18z"/>
			</g>
			<path class="st4" d="M594.16,309.6c0,0,1.2-6.16,1.78-5.91c0.58,0.25,6.36,3.72,6.36,3.72l6.46-9.68l3.88,2.57l-8.93,18.51
				L594.16,309.6z"/>
			<polygon class="st19" points="591.32,335.44 583.86,325.2 589.88,341.23 592.82,338.11 613.41,312.08 			"/>
			<path class="st19" d="M594.16,309.6c0.33,0.12,5.68,3.73,5.39,3.79c-0.29,0.06,2.25-4.32,2.25-4.32l5.68,2.16l4.66-11.28
				l-4.59,12.99l-5.38-2.6l-2.63,4.76L594.16,309.6z"/>
		</g>
	</g>
</g>
<g id="Character_1">
	<g>
		<g>
			<g>
				<g>
					<path class="st6" d="M225.72,232.95c0.05-1-0.06-2.01-0.41-2.96c-1.21-3.25-4.66-5.18-6.14-8.32
						c-2.18-4.63,0.89-10.39,5.39-12.81c3.49-1.88,5.32-2.23,8.34-2.06c3.02-0.17,4.85,0.18,8.34,2.06
						c4.5,2.42,7.57,8.19,5.39,12.81c-1.48,3.14-4.93,5.07-6.14,8.32c-0.36,0.95-0.47,1.96-0.41,2.96H286v-46.29
						c1.87-0.71,3.91-0.88,5.76-0.19c3.25,1.21,5.18,4.66,8.32,6.14c4.63,2.18,10.39-0.89,12.81-5.39c1.88-3.49,2.23-5.32,2.06-8.34
						c0.17-3.02-0.18-4.85-2.06-8.34c-2.42-4.5-8.19-7.57-12.81-5.39c-3.14,1.48-5.07,4.93-8.32,6.14
						c-1.85,0.69-3.89,0.51-5.76-0.19v-41.17l-102.68-0.46v103.04L225.72,232.95z"/>
				</g>
				<g class="st19">
					<path d="M225.72,232.95c0.05-1-0.06-2.01-0.41-2.96c-1.21-3.25-4.66-5.18-6.14-8.32c-2.18-4.63,0.89-10.39,5.39-12.81
						c3.49-1.88,5.32-2.23,8.34-2.06c3.02-0.17,4.85,0.18,8.34,2.06c4.5,2.42,7.57,8.19,5.39,12.81c-1.48,3.14-4.93,5.07-6.14,8.32
						c-0.36,0.95-0.47,1.96-0.41,2.96H286v-46.29c1.87-0.71,3.91-0.88,5.76-0.19c3.25,1.21,5.18,4.66,8.32,6.14
						c4.63,2.18,10.39-0.89,12.81-5.39c1.88-3.49,2.23-5.32,2.06-8.34c0.17-3.02-0.18-4.85-2.06-8.34
						c-2.42-4.5-8.19-7.57-12.81-5.39c-3.14,1.48-5.07,4.93-8.32,6.14c-1.85,0.69-3.89,0.51-5.76-0.19v-41.17l-102.68-0.46v103.04
						L225.72,232.95z"/>
				</g>
			</g>
			<g>
				<path class="st6" d="M228.84,232.95c0.05-1-0.06-2.01-0.41-2.96c-1.21-3.25-4.66-5.18-6.14-8.32
					c-2.18-4.63,0.89-10.39,5.39-12.81c3.49-1.88,5.32-2.23,8.34-2.06c3.02-0.17,4.85,0.18,8.34,2.06c4.5,2.42,7.57,8.19,5.39,12.81
					c-1.48,3.14-4.93,5.07-6.14,8.32c-0.36,0.95-0.47,1.96-0.42,2.96h45.93v-46.29c1.87-0.71,3.91-0.88,5.76-0.19
					c3.25,1.21,5.18,4.66,8.32,6.14c4.63,2.18,10.39-0.89,12.81-5.39c1.88-3.49,2.23-5.32,2.06-8.34c0.17-3.02-0.18-4.85-2.06-8.34
					c-2.42-4.5-8.19-7.57-12.81-5.39c-3.14,1.48-5.07,4.93-8.32,6.14c-1.85,0.69-3.89,0.51-5.76-0.19v-41.17l-102.68-0.46v103.04
					L228.84,232.95z"/>
			</g>
		</g>
		<g>
			<path class="st25" d="M160.56,177.8c0,0-7.5,26.56-2.7,31.19c4.8,4.62,21.58,1.54,20.72,1.2c-0.86-0.34,4.28-32.29,4.62-31.13
				C183.55,180.21,160.56,177.8,160.56,177.8z"/>
			<g>
				<g>
					<g>
						<g>
							<g>
								<path class="st25" d="M169.89,417.65l-0.02,23.05l10.7,0.83l3.76-21.65C179.44,416.34,174.62,415.5,169.89,417.65z"/>
							</g>
						</g>
					</g>
				</g>
				<g>
					<g>
						<g>
							<g>
								<g>
									<path class="st6" d="M169.77,438.29c-1.05,3.04-1.12,15.49-1.12,15.49l22.68,0.03c1.35-4.5-0.74-7.57-3.38-7.98
										c-1.14-0.17-2.47-1.44-3.45-2.54c-0.01-0.14-1.39-7.06-2.25-7.39c0,0-0.59-0.72-1.09,0c-0.5,0.72-0.94,3.05-0.94,3.05
										C176.68,434.18,173.21,434.82,169.77,438.29z"/>
								</g>
							</g>
						</g>
					</g>
				</g>
				<g>
					<g>
						<g>
							<g>
								<path class="st9" d="M169.5,441.9c2.56-1.02,5.31-0.63,7.55,1.07c0.39,0.3,0.76-0.4,0.37-0.69
									c-2.38-1.81-5.39-2.24-8.12-1.15C168.86,441.3,169.05,442.08,169.5,441.9L169.5,441.9z"/>
							</g>
						</g>
					</g>
				</g>
				<g>
					<g>
						<g>
							<path class="st9" d="M191.27,451.98C191.27,451.98,191.27,451.98,191.27,451.98l-22.35-0.03c-0.2,0-0.37-0.18-0.37-0.4
								c0-0.22,0.17-0.4,0.37-0.4c0,0,0,0,0,0l22.35,0.03c0.2,0,0.37,0.18,0.37,0.4C191.64,451.8,191.47,451.98,191.27,451.98z"/>
						</g>
					</g>
				</g>
			</g>
			<g>
				<g>
					<g>
						<g>
							<g>
								<path class="st25" d="M216.06,414.64l-0.03,26.01l10.3,0.85l5.07-24.35C227.26,413.83,222.46,412.2,216.06,414.64z"/>
							</g>
						</g>
					</g>
				</g>
				<g>
					<g>
						<g>
							<g>
								<g>
									<path class="st6" d="M215.56,438.34c-1.05,3.04-1.12,15.49-1.12,15.49l26.06,0.03c1.35-4.5-1.47-7.17-4.11-7.58
										c-1.14-0.17-5.12-1.85-6.09-2.95c-0.01-0.14-1.39-7.06-2.25-7.39c0,0-0.59-0.72-1.09,0c-0.5,0.72-0.94,3.05-0.94,3.05
										C222.47,434.24,219,434.87,215.56,438.34z"/>
								</g>
							</g>
						</g>
					</g>
				</g>
				<g>
					<g>
						<g>
							<g>
								<path class="st9" d="M215.29,441.95c2.56-1.02,5.31-0.63,7.55,1.07c0.39,0.3,0.76-0.4,0.37-0.69
									c-2.38-1.81-5.39-2.24-8.12-1.15C214.65,441.36,214.84,442.13,215.29,441.95L215.29,441.95z"/>
							</g>
						</g>
					</g>
				</g>
				<g>
					<g>
						<g>
							<path class="st9" d="M240.5,452.04C240.5,452.04,240.5,452.04,240.5,452.04l-25.79-0.03c-0.2,0-0.37-0.18-0.37-0.4
								c0-0.22,0.17-0.4,0.37-0.4c0,0,0,0,0,0l25.79,0.03c0.2,0,0.37,0.18,0.37,0.4C240.87,451.86,240.71,452.04,240.5,452.04z"/>
						</g>
					</g>
				</g>
			</g>
			<g>
				<g>
					<g>
						<g>
							<g>
								<path class="st6" d="M165.46,429l22.8,1.21c5.12-16.58,10.17-76.03,10.69-93.87c0.62-21.32,8.26-74.84,1.51-85.98
									c-6.75-11.14-37.29-2.27-37.29-2.27s3.81,65.17,2.28,85.95C164.14,352.06,162.1,405.01,165.46,429z"/>
							</g>
						</g>
					</g>
				</g>
				<g>
					<polygon class="st4" points="190.72,424.21 189.24,431.83 164.53,431.03 163.62,423.71 					"/>
				</g>
				<g>
					<g>
						<g>
							<g>
								<path class="st6" d="M211,429l22.6,1.21c2.75-18.35,13.81-85.19,12.9-98c-1.11-15.64-14.2-83.33-19.07-88.55
									s-40.51,8.31-40.51,8.31s14.65,58.21,26.2,83.39C215.52,340.6,209.14,406.68,211,429z"/>
							</g>
						</g>
					</g>
				</g>
				<g>
					<polygon class="st4" points="236.19,424.78 235.03,431.83 209.91,430.22 209.4,422.84 					"/>
				</g>
				<polygon class="st15" points="201.18,303.3 194.54,281.12 182.76,277.27 191.97,284.41 199.37,324.85 				"/>
			</g>
			<g>
				<g>
					<path class="st6" d="M213.88,106.8c0,0.96,0.42,1.68,1.02,1.78c0.6,0.1,1.16-0.71,1.21-1.68s-0.4-1.68-1.01-1.78
						C214.5,105.02,214,105.88,213.88,106.8z"/>
					<path class="st26" d="M214.27,106.67c0.34,3.09,1.1,6.11,2.27,8.98c-1.51,0.56-3.2,0.42-4.6-0.37L214.27,106.67z"/>
					<path class="st6" d="M212.15,103.73c-0.12,0.01-0.25-0.02-0.35-0.08c-0.22-0.21-0.22-0.57-0.01-0.78c0,0,0,0,0.01-0.01
						c1.12-1.4,2.85-2.16,4.63-2.05c0.3,0.03,0.51,0.29,0.49,0.58c0,0,0,0,0,0l0,0c-0.05,0.3-0.32,0.51-0.62,0.49l0,0
						c-1.42-0.06-2.77,0.56-3.64,1.68C212.53,103.7,212.34,103.77,212.15,103.73z"/>
				</g>
				<g>
					<path class="st25" d="M214.28,119.52c-0.13,0.51-0.28,1.01-0.46,1.51c-1.03,2.82-2.9,5.27-5.36,7.02
						c-0.62,0.45-1.28,0.85-1.96,1.19c-5.37,2.83-12,1.79-16.22-2.53c-5.43-5.39-5.29-11.61-5.9-22.14
						c-0.16-2.26,0.21-4.53,1.1-6.63c3.11-7.36,11.7-10.84,19.18-7.78c0,0,0,0,0.01,0C215.12,94.36,216.57,110.02,214.28,119.52z"/>
					<path class="st11" d="M208.42,128.05c-0.62,0.45-1.28,0.85-1.96,1.19c-3.64,1.91-7.95,2.09-11.74,0.51
						c0.48-1.27,1.13-2.47,1.92-3.57C200.66,125.67,204.75,126.32,208.42,128.05z"/>
					<path class="st25" d="M186.85,141.71c5.29,4.72,18.22,2.98,18.22,2.98s8.07-2.18,6.37-4.65c-4.74-0.77-7.05-2.95-8.01-5.75
						c-0.51-1.73-0.68-3.54-0.48-5.34c0.08-1,0.21-1.99,0.4-2.98l-15.99-11.64C189.45,122.01,192.02,136.15,186.85,141.71z"/>
					<path class="st6" d="M208.42,109.93l2.31,0.85l-1.15-4.64c0,0,3.38-5.07,0-9.47c0,0,9.33-2.79,4.06-7.6
						c-1.96-1.8-4.4,0-10.84-2.75c-3.49-1.51-14.43-1.62-14.97,2.75c0,0-7.88,0-8.73,13.18c-0.5,7.82,2.55,15.45,8.34,20.84
						c0,0,9.51,2.21,14.18-1.55C206.29,117.79,208.42,109.93,208.42,109.93z"/>
					<path class="st25" d="M202.33,110.68c0.41,2.01,1.71,3.73,3.56,4.68c2.18,0.91,3.62-2.1,3.3-5.27
						c-0.3-2.81-1.78-6.77-4.11-6.24C202.75,104.38,201.57,107.84,202.33,110.68z"/>
				</g>
			</g>
			<g>
				<path class="st4" d="M170.6,139.18c0,0-3.71,1.13-5.56,1.81c-3.85,1.41-6.39,5.7-7.79,9.91c-3.41,10.29-8.91,34.64-8.91,34.64
					l19.97,4.2l10.65-22.95L170.6,139.18z"/>
				<path class="st17" d="M170.6,139.18c0,0-5.34,0.99-8.16,3.32c-2.14,1.77-3.85,4.34-5.19,8.4c-3.41,10.29-8.91,34.64-8.91,34.64
					l19.97,4.2l10.65-22.95L170.6,139.18z"/>
				<g>
					<path class="st4" d="M218.97,140.36c-5.89-0.63-24.01-4.73-48.37-1.18l-5.7,90.07c0,0-0.73,13.78-2.89,25.61
						c24.76,10.63,54.04,7.59,70.6-1.35c-0.19,0.38-0.73-9.45-1.58-23.85c-1.5-25.37-3.95-64.93-7.11-87.83
						C223.83,141.26,219.55,140.42,218.97,140.36z"/>
				</g>
				<g class="st27">
					<path class="st9" d="M218.97,140.36c-5.89-0.63-24.01-4.73-48.37-1.18l-5.7,90.07c0,0-0.73,13.78-2.89,25.61
						c24.76,10.63,54.04,7.59,70.6-1.35c-0.19,0.38-0.73-9.45-1.58-23.85c-1.5-25.37-3.95-64.93-7.11-87.83
						C223.83,141.26,219.55,140.42,218.97,140.36z"/>
				</g>
				<g>
					<path class="st4" d="M186.58,138.24c0.7-2.09,1.68-3.57,2.94-4.42l13.57,1.05l6.36,4.19L186.58,138.24z"/>
					<path class="st17" d="M186.58,138.24c0.7-2.09,1.68-3.57,2.94-4.42l13.57,1.05l6.36,4.19L186.58,138.24z"/>
				</g>
				<path class="st11" d="M218.34,168.39c2.17,10.14,5.3,30.03,11.19,36.96l-1.4-20.13L218.34,168.39z"/>
				<polygon class="st11" points="167.04,189.45 167.56,163.44 162.1,188.21 				"/>
			</g>
			<g>
				<path class="st25" d="M228.74,176.41c-0.76,0.29,13.93,33.34,19.91,33.64c5.98,0.3,34.06-12.48,34.06-12.48l-6.3-7.52
					l-21.22,1.22l-10.83-23.04L228.74,176.41z"/>
				<g>
					<path class="st4" d="M221.35,141.49c-7.62,5.03-11.39,16.42,9.03,51.6l22.06-13.47c-4.46-8.23-9.19-14.22-14.44-26.14
						C227.4,138.24,221.35,141.49,221.35,141.49z"/>
					<path class="st17" d="M221.35,141.49c-7.62,5.03-11.39,16.42,9.03,51.6l22.06-13.47c-4.46-8.23-9.19-14.22-14.44-26.14
						C227.4,138.24,221.35,141.49,221.35,141.49z"/>
				</g>
				<path class="st25" d="M292.6,189.83c0-1.93-0.59-4.03-1.63-4.09c-1.04-0.06-6.59-0.01-6.59-0.01l0,0c0-1.56,2.92-3.26,1.97-4.32
					c-1.24-1.39-8.43,4.54-8.88,5.75c-0.89,2.37-1.34,2.97-1.34,2.97l3.8,8.72c0,0,7.03,4.63,8.66,3c1.63-1.63,1.48-3.38,1.48-3.38
					s1.63-2.26,1.48-3.75C291.41,193.24,292.6,191.76,292.6,189.83z"/>
			</g>
		</g>
	</g>
</g>
</svg>
